<?xml version="1.0" encoding="utf-8"?>
<!-- Generator: Adobe Illustrator 17.0.0, SVG Export Plug-In . SVG Version: 6.00 Build 0)  -->
<!DOCTYPE svg PUBLIC "-//W3C//DTD SVG 1.1//EN" "http://www.w3.org/Graphics/SVG/1.1/DTD/svg11.dtd">
<svg version="1.1" id="Layer_1" xmlns="http://www.w3.org/2000/svg" xmlns:xlink="http://www.w3.org/1999/xlink" x="0px" y="0px"
	 width="263.906px" height="69.699px" viewBox="0 0 263.906 69.699" enable-background="new 0 0 263.906 69.699"
	 xml:space="preserve">
<g>
	<path fill="#E7E7E7" d="M182.964,66.942c1.221,0.176,2.469,0.289,3.745,0.289h52.597c12.156,0,22.1-8.362,22.1-18.582
		c0-6.038-10.447-21.703-25.18-18.583C270.545,62.22,65.464,59.606,8.084,59.606C5.69,63.547,18.086,67.55,18.086,67.55
		l161.134-0.318C180.498,67.231,181.745,67.119,182.964,66.942z"/>
	<path fill="none" stroke="#292C31" stroke-width="5" stroke-linecap="round" stroke-linejoin="round" stroke-miterlimit="10" d="
		M241.406,29h-36.072c1.012-2.279,1.572-4.78,1.572-7.401c0-10.504-9-19.099-20-19.099H117c-11,0-20,8.595-20,19.099
		c0,2.621,0.561,5.122,1.572,7.401H75.666H22.5c-11,0-20,8.595-20,19.099c0,10.505,9,19.1,20,19.1h218.906c11,0,20-8.595,20-19.1
		C261.406,37.595,252.406,29,241.406,29z"/>
</g>
</svg>
