<?xml version="1.0" encoding="utf-8"?>
<!-- Generator: Adobe Illustrator 17.0.0, SVG Export Plug-In . SVG Version: 6.00 Build 0)  -->
<!DOCTYPE svg PUBLIC "-//W3C//DTD SVG 1.1//EN" "http://www.w3.org/Graphics/SVG/1.1/DTD/svg11.dtd">
<svg version="1.1" id="Layer_1" xmlns="http://www.w3.org/2000/svg" xmlns:xlink="http://www.w3.org/1999/xlink" x="0px" y="0px"
	 width="159px" height="63.532px" viewBox="0 0 159 63.532" enable-background="new 0 0 159 63.532" xml:space="preserve">
<g>
	<path fill="#E7E7E7" d="M82.74,60.776c1.144,0.176,2.313,0.289,3.509,0.289h49.279c11.389,0,20.706-8.362,20.706-18.582
		c0-6.038-9.788-21.703-23.592-18.583C164.797,56.053,61.094,51.175,7.333,51.175c-9.818,17.255,71.9,9.889,71.9,9.889
		C80.43,61.065,81.598,60.952,82.74,60.776z"/>
	<path fill="none" stroke="#292C31" stroke-width="5" stroke-linecap="round" stroke-linejoin="round" stroke-miterlimit="10" d="
		M136.5,22.834h-13.732c0.027-0.41,0.066-0.817,0.066-1.234c0-10.505-9-19.1-20-19.1H56.166c-11,0-20,8.595-20,19.1
		c0,0.417,0.037,0.824,0.065,1.234H22.5c-11,0-20,8.595-20,19.1c0,10.504,9,19.099,20,19.099h114c11,0,20-8.595,20-19.099
		C156.5,31.428,147.5,22.834,136.5,22.834z"/>
</g>
</svg>
