<?xml version="1.0" encoding="utf-8"?>
<!-- Generator: Adobe Illustrator 17.0.0, SVG Export Plug-In . SVG Version: 6.00 Build 0)  -->
<!DOCTYPE svg PUBLIC "-//W3C//DTD SVG 1.1//EN" "http://www.w3.org/Graphics/SVG/1.1/DTD/svg11.dtd">
<svg version="1.1" id="Layer_1" xmlns="http://www.w3.org/2000/svg" xmlns:xlink="http://www.w3.org/1999/xlink" x="0px" y="0px"
	 width="188px" height="72.064px" viewBox="0 0 188 72.064" enable-background="new 0 0 188 72.064" xml:space="preserve">
<g>
	<path fill="#E7E7E7" d="M112.248,68.608c1.144,0.177,2.313,0.289,3.509,0.289h49.279c11.389,0,20.706-8.362,20.706-18.582
		c0-6.039-9.788-21.703-23.592-18.583c32.154,32.154-73.233,24.754-126.994,24.754c-8.323,21.212,73.585,12.411,73.585,12.411
		C109.937,68.897,111.105,68.785,112.248,68.608z"/>
	<path fill="none" stroke="#292C31" stroke-width="5" stroke-linecap="round" stroke-linejoin="round" stroke-miterlimit="10" d="
		M165.5,31.365H89.975c1.802-2.865,2.858-6.199,2.858-9.767c0-10.504-9-19.099-20-19.099H22.5c-11,0-20,8.595-20,19.099
		c0,10.505,9,19.1,20,19.1h11.857c-1.801,2.865-2.857,6.2-2.857,9.767c0,10.504,9,19.099,20,19.099h114c11,0,20-8.595,20-19.099
		C185.5,39.96,176.5,31.365,165.5,31.365z"/>
</g>
</svg>
