<?xml version="1.0" encoding="utf-8"?>
<!-- Generator: Adobe Illustrator 17.0.0, SVG Export Plug-In . SVG Version: 6.00 Build 0)  -->
<!DOCTYPE svg PUBLIC "-//W3C//DTD SVG 1.1//EN" "http://www.w3.org/Graphics/SVG/1.1/DTD/svg11.dtd">
<svg version="1.1" id="Layer_1" xmlns="http://www.w3.org/2000/svg" xmlns:xlink="http://www.w3.org/1999/xlink" x="0px" y="0px"
	 width="79.429px" height="79.43px" viewBox="0 0 79.429 79.43" enable-background="new 0 0 79.429 79.43" xml:space="preserve">
<g>
	<g>
		<g>
			<g>
				<g>
					<g>
						<path fill="#292C31" d="M78.408,21.407c-0.324-1.127-1.499-1.777-2.625-1.455c-1.127,0.323-1.778,1.498-1.455,2.625
							c1.338,4.664,1.101,9.161-0.687,13.006c-1.638,3.525-4.58,6.42-8.284,8.151c-2.523,1.18-5.409,1.835-8.476,1.835
							c-4.399,0-9.17-1.35-13.768-4.437c2.406-2.224,4.64-4.844,6.659-7.826l0.013-0.019c1.305-1.973,1.995-4.273,1.995-6.651
							c0-6.655-5.412-12.07-12.064-12.07c-6.655,0-12.07,5.414-12.07,12.07c0,2.377,0.69,4.677,1.996,6.651l0.013,0.019
							c2.019,2.982,4.253,5.602,6.66,7.826c-7.805,5.239-16.102,5.473-22.245,2.602c-3.703-1.731-6.645-4.626-8.284-8.151
							C4.001,31.739,3.763,27.241,5.1,22.577c0.323-1.127-0.328-2.302-1.455-2.625c-1.127-0.324-2.302,0.328-2.625,1.455
							c-1.623,5.66-1.306,11.181,0.918,15.965c2.059,4.429,5.729,8.054,10.336,10.207c4.799,2.243,10.294,2.807,15.748,1.659
							c-0.714,3.036-1.174,7.598,1.138,11.072c2.01,3.021,5.561,4.553,10.554,4.553c4.779,0,8.226-1.49,10.242-4.429
							c2.398-3.494,2.016-8.153,1.369-11.215c1.861,0.398,3.727,0.597,5.57,0.597c3.583,0,7.074-0.749,10.259-2.238
							c4.607-2.153,8.277-5.778,10.335-10.207C79.714,32.588,80.031,27.067,78.408,21.407z M33.177,30.935
							c-0.84-1.275-1.285-2.761-1.285-4.299c0-4.315,3.51-7.826,7.825-7.826c4.312,0,7.82,3.511,7.82,7.826
							c0,1.539-0.444,3.025-1.285,4.299c-2.052,3.029-4.255,5.532-6.537,7.558C37.433,36.468,35.229,33.964,33.177,30.935z
							 M46.49,58.066c-1.188,1.725-3.467,2.599-6.776,2.599c-3.496,0-5.87-0.899-7.055-2.673c-1.996-2.989-0.599-8.239,0.184-10.229
							c1.633-0.659,3.227-1.47,4.772-2.427v7.45c0,1.159,0.94,2.099,2.099,2.099c1.159,0,2.099-0.94,2.099-2.099v-7.45
							c1.545,0.956,3.139,1.767,4.772,2.427C47.319,49.825,48.54,55.09,46.49,58.066z"/>
						<g>
							<circle fill="#292C31" cx="14.303" cy="32.422" r="2.081"/>
							<circle fill="#292C31" cx="21.132" cy="37.397" r="2.081"/>
							<circle fill="#292C31" cx="65.127" cy="32.422" r="2.081"/>
							<circle fill="#292C31" cx="58.297" cy="37.397" r="2.082"/>
						</g>
					</g>
				</g>
			</g>
			<path opacity="0.15" fill="#292C31" d="M32.296,47.432c-0.448,1.139-1.145,5.161-1.03,5.112c0.116-0.345,0.258-0.79,0.362-1.056
				c2.411-0.915,4.051-1.683,6.119-2.97l0.283,0.721c0.173-0.094,0.348-0.189,0.525-0.286v-4.704
				C36.528,45.503,34.438,46.567,32.296,47.432z"/>
			<path opacity="0.15" fill="#292C31" d="M47.133,47.432c0.449,1.139,1.145,5.161,1.03,5.112c-0.116-0.345-0.258-0.79-0.362-1.056
				c-2.411-0.915-4.051-1.683-6.119-2.97l-0.283,0.721c-0.173-0.094-0.348-0.189-0.525-0.286v-4.704
				C42.901,45.503,44.991,46.567,47.133,47.432z"/>
		</g>
	</g>
</g>
</svg>
