<?xml version="1.0" encoding="utf-8"?>
<!-- Generator: Adobe Illustrator 17.0.0, SVG Export Plug-In . SVG Version: 6.00 Build 0)  -->
<!DOCTYPE svg PUBLIC "-//W3C//DTD SVG 1.1//EN" "http://www.w3.org/Graphics/SVG/1.1/DTD/svg11.dtd">
<svg version="1.1" id="Layer_1" xmlns="http://www.w3.org/2000/svg" xmlns:xlink="http://www.w3.org/1999/xlink" x="0px" y="0px"
	 width="149.452px" height="216.858px" viewBox="0 0 149.452 216.858" enable-background="new 0 0 149.452 216.858"
	 xml:space="preserve">
<path class="pulse pulse-1" xmlns="http://www.w3.org/2000/svg" fill="#FEF25B" fill-opacity="0.4" stroke="#FEF25B" stroke-width="2.5" stroke-miterlimit="10" d="M143.726,72.918  c0,39.105-31.704,70.811-70.811,70.811c-39.109,0-70.808-31.706-70.808-70.811c0-39.108,31.699-70.811,70.808-70.811  C112.022,2.107,143.726,33.81,143.726,72.918z"/>
<path class="pulse pulse-2" xmlns="http://www.w3.org/2000/svg" fill="#FEF25B" fill-opacity="0.4" stroke="#FEF25B" stroke-width="2.5" stroke-miterlimit="10" d="M143.726,72.918  c0,39.105-31.704,70.811-70.811,70.811c-39.109,0-70.808-31.706-70.808-70.811c0-39.108,31.699-70.811,70.808-70.811  C112.022,2.107,143.726,33.81,143.726,72.918z"/>
<path class="pulse pulse-3" xmlns="http://www.w3.org/2000/svg" fill="#FEF25B" fill-opacity="0.4" stroke="#FEF25B" stroke-width="2.5" stroke-miterlimit="10" d="M143.726,72.918  c0,39.105-31.704,70.811-70.811,70.811c-39.109,0-70.808-31.706-70.808-70.811c0-39.108,31.699-70.811,70.808-70.811  C112.022,2.107,143.726,33.81,143.726,72.918z"/>
<g>
	<path fill="rgba(0,0,0,0.1)" d="M135.46,119.466c8.791-12.045,13.991-26.878,13.991-42.932c0-40.271-32.646-72.916-72.917-72.916
		c-40.271,0-72.917,32.646-72.917,72.916c0,16.054,5.2,30.886,13.991,42.931c1.193,1.762,6.437,7.687,7.243,8.505
		c41.335,41.944,51.682,88.886,51.682,88.886s10.347-46.943,51.682-88.886C129.023,127.153,134.268,121.228,135.46,119.466z"/>
	<path fill="#FCF060" d="M131.842,115.848c8.791-12.045,13.991-26.878,13.991-42.932C145.833,32.646,113.187,0,72.917,0
		C32.646,0,0,32.646,0,72.916c0,16.054,5.2,30.886,13.991,42.931c1.193,1.762,6.437,7.687,7.243,8.505
		c41.335,41.944,51.682,88.886,51.682,88.886s10.347-46.943,51.682-88.886C125.405,123.535,130.649,117.609,131.842,115.848z"/>
	<g>
		<g>
			<g>
				<g>
					<path fill="#292C31" d="M121.239,56.471c-0.404-1.407-1.872-2.219-3.278-1.817c-1.407,0.403-2.22,1.871-1.817,3.278
						c1.67,5.825,1.374,11.441-0.857,16.242c-2.046,4.402-5.72,8.017-10.345,10.179c-3.151,1.473-6.755,2.292-10.585,2.292
						c-5.494,0-11.451-1.686-17.194-5.541c3.005-2.778,5.795-6.05,8.316-9.773l0.016-0.024c1.63-2.464,2.491-5.336,2.491-8.305
						c0-8.311-6.758-15.073-15.066-15.073c-8.311,0-15.073,6.762-15.073,15.073c0,2.969,0.862,5.841,2.493,8.305l0.016,0.024
						c2.521,3.724,5.311,6.996,8.317,9.773c-9.748,6.543-20.108,6.835-27.78,3.25c-4.625-2.162-8.299-5.777-10.345-10.179
						c-2.231-4.801-2.528-10.417-0.858-16.242c0.404-1.407-0.41-2.875-1.817-3.278c-1.408-0.404-2.875,0.41-3.278,1.817
						c-2.027,7.069-1.631,13.963,1.146,19.937c2.571,5.531,7.155,10.058,12.908,12.747c5.993,2.801,12.855,3.506,19.666,2.072
						c-0.891,3.792-1.466,9.488,1.422,13.828c2.51,3.773,6.945,5.685,13.18,5.685c5.969,0,10.272-1.861,12.791-5.531
						c2.994-4.364,2.517-10.182,1.71-14.005c2.324,0.496,4.655,0.746,6.956,0.746c4.474,0,8.834-0.936,12.812-2.795
						c5.753-2.689,10.336-7.216,12.907-12.747C122.869,70.433,123.265,63.539,121.239,56.471z M64.752,68.37
						c-1.05-1.592-1.604-3.448-1.604-5.369c0-5.389,4.384-9.773,9.772-9.773c5.385,0,9.766,4.384,9.766,9.773
						c0,1.921-0.555,3.778-1.604,5.369c-2.563,3.783-5.314,6.908-8.164,9.438C70.067,75.279,67.315,72.153,64.752,68.37z
						 M81.379,102.252c-1.483,2.154-4.33,3.246-8.462,3.246c-4.366,0-7.33-1.123-8.81-3.339c-2.493-3.733-0.748-10.29,0.23-12.775
						c2.039-0.823,4.029-1.836,5.959-3.03v9.304c0,1.448,1.174,2.621,2.621,2.621c1.447,0,2.621-1.173,2.621-2.621v-9.303
						c1.93,1.194,3.92,2.207,5.96,3.03C82.413,91.959,83.939,98.535,81.379,102.252z"/>
					<g>
						<circle fill="#292C31" cx="41.181" cy="70.226" r="2.599"/>
						<circle fill="#292C31" cx="49.711" cy="76.439" r="2.599"/>
						<circle fill="#292C31" cx="104.652" cy="70.226" r="2.599"/>
						<circle fill="#292C31" cx="96.122" cy="76.439" r="2.599"/>
					</g>
				</g>
			</g>
		</g>
		<path opacity="0.15" fill="#292C31" d="M63.652,88.971c-0.56,1.422-1.43,6.446-1.286,6.383c0.145-0.431,0.322-0.987,0.453-1.319
			c3.01-1.143,5.059-2.101,7.641-3.709l0.353,0.901c0.217-0.117,0.435-0.236,0.655-0.357v-5.874
			C68.937,86.563,66.327,87.891,63.652,88.971z"/>
		<path opacity="0.15" fill="#292C31" d="M82.181,88.971c0.56,1.422,1.43,6.446,1.286,6.383c-0.144-0.431-0.322-0.987-0.453-1.319
			c-3.01-1.143-5.059-2.101-7.641-3.709l-0.354,0.901c-0.216-0.117-0.435-0.236-0.655-0.357v-5.874
			C76.896,86.563,79.506,87.891,82.181,88.971z"/>
	</g>
</g>
</svg>
