<?xml version="1.0" encoding="utf-8"?>
<!-- Generator: Adobe Illustrator 17.0.0, SVG Export Plug-In . SVG Version: 6.00 Build 0)  -->
<!DOCTYPE svg PUBLIC "-//W3C//DTD SVG 1.1//EN" "http://www.w3.org/Graphics/SVG/1.1/DTD/svg11.dtd">
<svg version="1.1" id="Layer_1" xmlns="http://www.w3.org/2000/svg" xmlns:xlink="http://www.w3.org/1999/xlink" x="0px" y="0px"
	 width="944.271px" height="560.887px" viewBox="0 0 944.271 560.887" enable-background="new 0 0 944.271 560.887"
	 xml:space="preserve">
<g>
	
		<line fill="none" stroke="#292C31" stroke-width="5" stroke-linecap="round" stroke-linejoin="round" stroke-miterlimit="10" x1="727.09" y1="410.73" x2="727.09" y2="545.671"/>
	
		<line fill="none" stroke="#292C31" stroke-width="5" stroke-linecap="round" stroke-linejoin="round" stroke-miterlimit="10" x1="706.502" y1="410.73" x2="706.502" y2="545.671"/>
	
		<path fill="#FFFFFF" stroke="#292C31" stroke-width="5" stroke-linecap="round" stroke-linejoin="round" stroke-miterlimit="10" d="
		M789.05,331.074c0.504-1.463,0.776-2.956,0.776-4.477c0-8.612-8.383-16.398-21.895-22.004c1.909-2.691,2.961-5.577,2.961-8.584
		c0-10.348-12.279-19.303-30.148-23.641c1.686-2.656,2.657-5.618,2.657-8.759c0-11.246-12.104-20.362-27.032-20.362
		c-14.93,0-27.033,9.117-27.033,20.362c0,3.142,0.971,6.103,2.658,8.759c-17.873,4.338-30.148,13.292-30.148,23.641
		c0,3.007,1.051,5.893,2.957,8.584c-13.51,5.606-21.893,13.392-21.893,22.004c0,1.522,0.273,3.016,0.775,4.477
		c-12.331,8.361-19.707,18.891-19.707,30.348c0,27.164,41.364,49.185,92.391,49.185c51.024,0,92.389-22.021,92.389-49.185
		C808.758,349.965,801.382,339.435,789.05,331.074z"/>
	
		<line fill="none" stroke="#292C31" stroke-width="5" stroke-linecap="round" stroke-linejoin="round" stroke-miterlimit="10" x1="716.369" y1="369.688" x2="745.512" y2="340.545"/>
	<rect x="292.963" y="29.786" fill="#FFFFFF" width="358.846" height="515.718"/>
	
		<line fill="none" stroke="#292C31" stroke-width="5" stroke-linecap="round" stroke-linejoin="round" stroke-miterlimit="10" x1="716.369" y1="299.177" x2="716.369" y2="382.746"/>
	
		<line fill="none" stroke="#292C31" stroke-width="5" stroke-linecap="round" stroke-linejoin="round" stroke-miterlimit="10" x1="716.369" y1="338.272" x2="729.326" y2="325.314"/>
	
		<line fill="none" stroke="#292C31" stroke-width="5" stroke-linecap="round" stroke-linejoin="round" stroke-miterlimit="10" x1="716.369" y1="312.234" x2="726.533" y2="302.07"/>
	
		<line fill="none" stroke="#292C31" stroke-width="5" stroke-linecap="round" stroke-linejoin="round" stroke-miterlimit="10" x1="716.369" y1="369.688" x2="691.02" y2="344.339"/>
	
		<line fill="none" stroke="#292C31" stroke-width="5" stroke-linecap="round" stroke-linejoin="round" stroke-miterlimit="10" x1="716.369" y1="338.272" x2="703.551" y2="325.455"/>
	
		<line fill="none" stroke="#292C31" stroke-width="5" stroke-linecap="round" stroke-linejoin="round" stroke-miterlimit="10" x1="716.155" y1="308.84" x2="705.022" y2="297.707"/>
	<g>
		<g>
			
				<polygon fill="#FFFFFF" stroke="#292C31" stroke-width="5" stroke-linecap="round" stroke-linejoin="round" stroke-miterlimit="10" points="
				805.735,421.315 796.665,433.082 796.665,545.671 814.805,545.671 814.805,433.082 			"/>
			
				<polygon fill="#FFFFFF" stroke="#292C31" stroke-width="5" stroke-linecap="round" stroke-linejoin="round" stroke-miterlimit="10" points="
				823.873,421.315 814.805,433.082 814.805,545.671 832.943,545.671 832.943,433.082 			"/>
			
				<polygon fill="#FFFFFF" stroke="#292C31" stroke-width="5" stroke-linecap="round" stroke-linejoin="round" stroke-miterlimit="10" points="
				842.012,421.315 832.943,433.082 832.943,545.671 851.081,545.671 851.081,433.082 			"/>
			
				<polygon fill="#FFFFFF" stroke="#292C31" stroke-width="5" stroke-linecap="round" stroke-linejoin="round" stroke-miterlimit="10" points="
				860.151,421.315 851.081,433.082 851.081,545.671 869.22,545.671 869.22,433.082 			"/>
			
				<polygon fill="#FFFFFF" stroke="#292C31" stroke-width="5" stroke-linecap="round" stroke-linejoin="round" stroke-miterlimit="10" points="
				878.288,421.315 869.22,433.082 869.22,545.671 887.358,545.671 887.358,433.082 			"/>
			
				<polygon fill="#FFFFFF" stroke="#292C31" stroke-width="5" stroke-linecap="round" stroke-linejoin="round" stroke-miterlimit="10" points="
				896.426,421.315 887.358,433.082 887.358,545.671 905.494,545.671 905.494,433.082 			"/>
			
				<polygon fill="#FFFFFF" stroke="#292C31" stroke-width="5" stroke-linecap="round" stroke-linejoin="round" stroke-miterlimit="10" points="
				914.566,421.315 905.494,433.082 905.494,545.671 923.635,545.671 923.635,433.082 			"/>
			
				<polygon fill="#FFFFFF" stroke="#292C31" stroke-width="5" stroke-linecap="round" stroke-linejoin="round" stroke-miterlimit="10" points="
				932.703,421.315 923.635,433.082 923.635,545.671 941.772,545.671 941.772,433.082 			"/>
		</g>
		<g>
			
				<polygon fill="#FFFFFF" stroke="#292C31" stroke-width="5" stroke-linecap="round" stroke-linejoin="round" stroke-miterlimit="10" points="
				660.629,421.315 651.559,433.082 651.559,545.671 669.697,545.671 669.697,433.082 			"/>
			
				<polygon fill="#FFFFFF" stroke="#292C31" stroke-width="5" stroke-linecap="round" stroke-linejoin="round" stroke-miterlimit="10" points="
				678.766,421.315 669.697,433.082 669.697,545.671 687.836,545.671 687.836,433.082 			"/>
			
				<polygon fill="#FFFFFF" stroke="#292C31" stroke-width="5" stroke-linecap="round" stroke-linejoin="round" stroke-miterlimit="10" points="
				696.905,421.315 687.836,433.082 687.836,545.671 705.975,545.671 705.975,433.082 			"/>
			
				<polygon fill="#FFFFFF" stroke="#292C31" stroke-width="5" stroke-linecap="round" stroke-linejoin="round" stroke-miterlimit="10" points="
				715.043,421.315 705.975,433.082 705.975,545.671 724.112,545.671 724.112,433.082 			"/>
			
				<polygon fill="#FFFFFF" stroke="#292C31" stroke-width="5" stroke-linecap="round" stroke-linejoin="round" stroke-miterlimit="10" points="
				733.182,421.315 724.112,433.082 724.112,545.671 742.251,545.671 742.251,433.082 			"/>
			
				<polygon fill="#FFFFFF" stroke="#292C31" stroke-width="5" stroke-linecap="round" stroke-linejoin="round" stroke-miterlimit="10" points="
				751.318,421.315 742.251,433.082 742.251,545.671 760.389,545.671 760.389,433.082 			"/>
			
				<polygon fill="#FFFFFF" stroke="#292C31" stroke-width="5" stroke-linecap="round" stroke-linejoin="round" stroke-miterlimit="10" points="
				769.459,421.315 760.389,433.082 760.389,545.671 778.529,545.671 778.529,433.082 			"/>
			
				<polygon fill="#FFFFFF" stroke="#292C31" stroke-width="5" stroke-linecap="round" stroke-linejoin="round" stroke-miterlimit="10" points="
				787.597,421.315 778.529,433.082 778.529,545.671 796.665,545.671 796.665,433.082 			"/>
		</g>
	</g>
	
		<line fill="none" stroke="#292C31" stroke-width="5" stroke-linecap="round" stroke-linejoin="round" stroke-miterlimit="10" x1="189.297" y1="385.377" x2="189.297" y2="545.671"/>
	
		<line fill="none" stroke="#292C31" stroke-width="5" stroke-linecap="round" stroke-linejoin="round" stroke-miterlimit="10" x1="164.828" y1="385.377" x2="164.828" y2="545.671"/>
	<g>
		<g>
			
				<polygon fill="#FFFFFF" stroke="#292C31" stroke-width="5" stroke-linecap="round" stroke-linejoin="round" stroke-miterlimit="10" points="
				156.676,421.315 147.607,433.082 147.607,545.671 165.746,545.671 165.746,433.082 			"/>
			
				<polygon fill="#FFFFFF" stroke="#292C31" stroke-width="5" stroke-linecap="round" stroke-linejoin="round" stroke-miterlimit="10" points="
				174.815,421.315 165.746,433.082 165.746,545.671 183.884,545.671 183.884,433.082 			"/>
			
				<polygon fill="#FFFFFF" stroke="#292C31" stroke-width="5" stroke-linecap="round" stroke-linejoin="round" stroke-miterlimit="10" points="
				192.951,421.315 183.884,433.082 183.884,545.671 202.023,545.671 202.023,433.082 			"/>
			
				<polygon fill="#FFFFFF" stroke="#292C31" stroke-width="5" stroke-linecap="round" stroke-linejoin="round" stroke-miterlimit="10" points="
				211.091,421.315 202.023,433.082 202.023,545.671 220.16,545.671 220.16,433.082 			"/>
			
				<polygon fill="#FFFFFF" stroke="#292C31" stroke-width="5" stroke-linecap="round" stroke-linejoin="round" stroke-miterlimit="10" points="
				229.23,421.315 220.16,433.082 220.16,545.671 238.299,545.671 238.299,433.082 			"/>
			
				<polygon fill="#FFFFFF" stroke="#292C31" stroke-width="5" stroke-linecap="round" stroke-linejoin="round" stroke-miterlimit="10" points="
				247.367,421.315 238.299,433.082 238.299,545.671 256.436,545.671 256.436,433.082 			"/>
			
				<polygon fill="#FFFFFF" stroke="#292C31" stroke-width="5" stroke-linecap="round" stroke-linejoin="round" stroke-miterlimit="10" points="
				265.506,421.315 256.436,433.082 256.436,545.671 274.576,545.671 274.576,433.082 			"/>
			
				<polygon fill="#FFFFFF" stroke="#292C31" stroke-width="5" stroke-linecap="round" stroke-linejoin="round" stroke-miterlimit="10" points="
				283.644,421.315 274.576,433.082 274.576,545.671 292.713,545.671 292.713,433.082 			"/>
		</g>
		<g>
			
				<polygon fill="#FFFFFF" stroke="#292C31" stroke-width="5" stroke-linecap="round" stroke-linejoin="round" stroke-miterlimit="10" points="
				11.57,421.315 2.5,433.082 2.5,545.671 20.638,545.671 20.638,433.082 			"/>
			
				<polygon fill="#FFFFFF" stroke="#292C31" stroke-width="5" stroke-linecap="round" stroke-linejoin="round" stroke-miterlimit="10" points="
				29.707,421.315 20.638,433.082 20.638,545.671 38.777,545.671 38.777,433.082 			"/>
			
				<polygon fill="#FFFFFF" stroke="#292C31" stroke-width="5" stroke-linecap="round" stroke-linejoin="round" stroke-miterlimit="10" points="
				47.846,421.315 38.777,433.082 38.777,545.671 56.916,545.671 56.916,433.082 			"/>
			
				<polygon fill="#FFFFFF" stroke="#292C31" stroke-width="5" stroke-linecap="round" stroke-linejoin="round" stroke-miterlimit="10" points="
				65.986,421.315 56.916,433.082 56.916,545.671 75.054,545.671 75.054,433.082 			"/>
			
				<polygon fill="#FFFFFF" stroke="#292C31" stroke-width="5" stroke-linecap="round" stroke-linejoin="round" stroke-miterlimit="10" points="
				84.123,421.315 75.054,433.082 75.054,545.671 93.192,545.671 93.192,433.082 			"/>
			
				<polygon fill="#FFFFFF" stroke="#292C31" stroke-width="5" stroke-linecap="round" stroke-linejoin="round" stroke-miterlimit="10" points="
				102.26,421.315 93.192,433.082 93.192,545.671 111.329,545.671 111.329,433.082 			"/>
			
				<polygon fill="#FFFFFF" stroke="#292C31" stroke-width="5" stroke-linecap="round" stroke-linejoin="round" stroke-miterlimit="10" points="
				120.401,421.315 111.329,433.082 111.329,545.671 129.469,545.671 129.469,433.082 			"/>
			
				<polygon fill="#FFFFFF" stroke="#292C31" stroke-width="5" stroke-linecap="round" stroke-linejoin="round" stroke-miterlimit="10" points="
				138.538,421.315 129.469,433.082 129.469,545.671 147.607,545.671 147.607,433.082 			"/>
		</g>
	</g>
	<g>
		<circle fill="#E7E7E7" cx="369.772" cy="498.895" r="38.728"/>
		
			<circle fill="#FFFFFF" stroke="#292C31" stroke-width="5" stroke-linecap="round" stroke-linejoin="round" stroke-miterlimit="10" cx="365.236" cy="494.359" r="38.729"/>
		
			<line fill="none" stroke="#292C31" stroke-width="5" stroke-linecap="round" stroke-linejoin="round" stroke-miterlimit="10" x1="365.235" y1="480.143" x2="365.235" y2="511.028"/>
		
			<line fill="none" stroke="#292C31" stroke-width="5" stroke-linecap="round" stroke-linejoin="round" stroke-miterlimit="10" x1="378.963" y1="495.586" x2="365.235" y2="511.028"/>
		
			<line fill="none" stroke="#292C31" stroke-width="5" stroke-linecap="round" stroke-linejoin="round" stroke-miterlimit="10" x1="357.637" y1="495.585" x2="365.082" y2="503.031"/>
		
			<line fill="none" stroke="#292C31" stroke-width="5" stroke-linecap="round" stroke-linejoin="round" stroke-miterlimit="10" x1="365.235" y1="533.088" x2="365.235" y2="545.671"/>
	</g>
	
		<path fill="#FFFFFF" stroke="#292C31" stroke-width="5" stroke-linecap="round" stroke-linejoin="round" stroke-miterlimit="10" d="
		M262.934,290.628c0.6-1.738,0.922-3.513,0.922-5.322c0-10.235-9.962-19.489-26.02-26.15c2.268-3.201,3.518-6.63,3.518-10.203
		c0-12.3-14.592-22.94-35.829-28.098c2.002-3.157,3.156-6.676,3.156-10.41c0-13.365-14.384-24.2-32.127-24.2
		s-32.128,10.835-32.128,24.2c0,3.734,1.154,7.253,3.158,10.41c-21.24,5.157-35.83,15.797-35.83,28.098
		c0,3.572,1.25,7.001,3.516,10.203c-16.058,6.661-26.021,15.915-26.021,26.15c0,1.81,0.324,3.585,0.924,5.322
		c-14.655,9.936-23.422,22.452-23.422,36.066c0,32.285,49.161,58.456,109.803,58.456c60.641,0,109.803-26.171,109.803-58.456
		C286.357,313.08,277.59,300.564,262.934,290.628z"/>
	
		<line fill="none" stroke="#292C31" stroke-width="5" stroke-linecap="round" stroke-linejoin="round" stroke-miterlimit="10" x1="176.554" y1="252.719" x2="176.554" y2="352.037"/>
	
		<line fill="none" stroke="#292C31" stroke-width="5" stroke-linecap="round" stroke-linejoin="round" stroke-miterlimit="10" x1="176.554" y1="336.52" x2="211.189" y2="301.883"/>
	
		<line fill="none" stroke="#292C31" stroke-width="5" stroke-linecap="round" stroke-linejoin="round" stroke-miterlimit="10" x1="176.554" y1="299.183" x2="191.954" y2="283.781"/>
	
		<line fill="none" stroke="#292C31" stroke-width="5" stroke-linecap="round" stroke-linejoin="round" stroke-miterlimit="10" x1="176.554" y1="268.237" x2="188.634" y2="256.157"/>
	
		<line fill="none" stroke="#292C31" stroke-width="5" stroke-linecap="round" stroke-linejoin="round" stroke-miterlimit="10" x1="176.554" y1="336.52" x2="146.427" y2="306.393"/>
	
		<line fill="none" stroke="#292C31" stroke-width="5" stroke-linecap="round" stroke-linejoin="round" stroke-miterlimit="10" x1="176.554" y1="299.183" x2="161.322" y2="283.95"/>
	
		<line fill="none" stroke="#292C31" stroke-width="5" stroke-linecap="round" stroke-linejoin="round" stroke-miterlimit="10" x1="176.598" y1="264.501" x2="163.068" y2="250.971"/>
	<g>
		<g>
			<polygon fill="#E7E7E7" points="651.559,48.867 292.714,38.912 292.714,29.954 651.559,29.954 			"/>
			
				<rect x="292.713" y="29.954" fill="none" stroke="#292C31" stroke-width="5" stroke-linecap="round" stroke-linejoin="round" stroke-miterlimit="10" width="358.846" height="515.718"/>
			
				<rect x="272.453" y="2.5" fill="#FFFFFF" stroke="#292C31" stroke-width="5" stroke-linecap="round" stroke-linejoin="round" stroke-miterlimit="10" width="396.101" height="27.454"/>
		</g>
		<g>
			<g>
				
					<line fill="none" stroke="#D2D3D4" stroke-width="4.7784" stroke-linecap="round" stroke-linejoin="round" stroke-miterlimit="10" x1="311.867" y1="304.709" x2="405.989" y2="304.709"/>
				
					<rect x="325.963" y="200.88" fill="none" stroke="#292C31" stroke-width="5" stroke-linecap="round" stroke-linejoin="round" stroke-miterlimit="10" width="59.479" height="99.351"/>
				
					<line fill="none" stroke="#292C31" stroke-width="5" stroke-linecap="round" stroke-linejoin="round" stroke-miterlimit="10" x1="308.642" y1="300.23" x2="402.764" y2="300.23"/>
				
					<line fill="none" stroke="#292C31" stroke-width="5" stroke-linecap="round" stroke-linejoin="round" stroke-miterlimit="10" x1="325.963" y1="250.555" x2="385.442" y2="250.555"/>
			</g>
			<g>
				
					<line fill="none" stroke="#E7E7E7" stroke-width="4.7784" stroke-linecap="round" stroke-linejoin="round" stroke-miterlimit="10" x1="352.679" y1="217.54" x2="344.555" y2="225.663"/>
				
					<line fill="none" stroke="#E7E7E7" stroke-width="4.7784" stroke-linecap="round" stroke-linejoin="round" stroke-miterlimit="10" x1="366.158" y1="219.133" x2="346.637" y2="238.656"/>
			</g>
		</g>
		<g>
			<g>
				
					<line fill="none" stroke="#D2D3D4" stroke-width="4.7784" stroke-linecap="round" stroke-linejoin="round" stroke-miterlimit="10" x1="311.867" y1="168.427" x2="405.989" y2="168.427"/>
				
					<rect x="325.963" y="64.596" fill="none" stroke="#292C31" stroke-width="5" stroke-linecap="round" stroke-linejoin="round" stroke-miterlimit="10" width="59.479" height="99.351"/>
				
					<line fill="none" stroke="#292C31" stroke-width="5" stroke-linecap="round" stroke-linejoin="round" stroke-miterlimit="10" x1="308.642" y1="163.947" x2="402.764" y2="163.947"/>
				
					<line fill="none" stroke="#292C31" stroke-width="5" stroke-linecap="round" stroke-linejoin="round" stroke-miterlimit="10" x1="325.963" y1="114.272" x2="385.442" y2="114.272"/>
			</g>
			<g>
				
					<line fill="none" stroke="#E7E7E7" stroke-width="4.7784" stroke-linecap="round" stroke-linejoin="round" stroke-miterlimit="10" x1="352.679" y1="81.258" x2="344.555" y2="89.381"/>
				
					<line fill="none" stroke="#E7E7E7" stroke-width="4.7784" stroke-linecap="round" stroke-linejoin="round" stroke-miterlimit="10" x1="366.158" y1="82.851" x2="346.637" y2="102.374"/>
			</g>
		</g>
		<g>
			<g>
				
					<line fill="none" stroke="#D2D3D4" stroke-width="4.7784" stroke-linecap="round" stroke-linejoin="round" stroke-miterlimit="10" x1="426.689" y1="304.709" x2="520.812" y2="304.709"/>
				
					<rect x="440.783" y="200.88" fill="none" stroke="#292C31" stroke-width="5" stroke-linecap="round" stroke-linejoin="round" stroke-miterlimit="10" width="59.479" height="99.351"/>
				
					<line fill="none" stroke="#292C31" stroke-width="5" stroke-linecap="round" stroke-linejoin="round" stroke-miterlimit="10" x1="423.461" y1="300.23" x2="517.584" y2="300.23"/>
				
					<line fill="none" stroke="#292C31" stroke-width="5" stroke-linecap="round" stroke-linejoin="round" stroke-miterlimit="10" x1="440.783" y1="250.555" x2="500.262" y2="250.555"/>
			</g>
			<g>
				
					<line fill="none" stroke="#E7E7E7" stroke-width="4.7784" stroke-linecap="round" stroke-linejoin="round" stroke-miterlimit="10" x1="467.498" y1="217.54" x2="459.375" y2="225.663"/>
				
					<line fill="none" stroke="#E7E7E7" stroke-width="4.7784" stroke-linecap="round" stroke-linejoin="round" stroke-miterlimit="10" x1="480.981" y1="219.133" x2="461.457" y2="238.656"/>
			</g>
		</g>
		<g>
			<g>
				
					<line fill="none" stroke="#D2D3D4" stroke-width="4.7784" stroke-linecap="round" stroke-linejoin="round" stroke-miterlimit="10" x1="426.689" y1="168.427" x2="520.812" y2="168.427"/>
				
					<rect x="440.783" y="64.596" fill="none" stroke="#292C31" stroke-width="5" stroke-linecap="round" stroke-linejoin="round" stroke-miterlimit="10" width="59.479" height="99.351"/>
				
					<line fill="none" stroke="#292C31" stroke-width="5" stroke-linecap="round" stroke-linejoin="round" stroke-miterlimit="10" x1="423.461" y1="163.947" x2="517.584" y2="163.947"/>
				
					<line fill="none" stroke="#292C31" stroke-width="5" stroke-linecap="round" stroke-linejoin="round" stroke-miterlimit="10" x1="440.783" y1="114.272" x2="500.262" y2="114.272"/>
			</g>
			<g>
				
					<line fill="none" stroke="#E7E7E7" stroke-width="4.7784" stroke-linecap="round" stroke-linejoin="round" stroke-miterlimit="10" x1="467.498" y1="81.258" x2="459.375" y2="89.381"/>
				
					<line fill="none" stroke="#E7E7E7" stroke-width="4.7784" stroke-linecap="round" stroke-linejoin="round" stroke-miterlimit="10" x1="480.981" y1="82.851" x2="461.457" y2="102.374"/>
			</g>
		</g>
		<g>
			<g>
				
					<line fill="none" stroke="#D2D3D4" stroke-width="4.7784" stroke-linecap="round" stroke-linejoin="round" stroke-miterlimit="10" x1="541.508" y1="304.709" x2="635.632" y2="304.709"/>
				
					<rect x="555.606" y="200.88" fill="none" stroke="#292C31" stroke-width="5" stroke-linecap="round" stroke-linejoin="round" stroke-miterlimit="10" width="59.476" height="99.351"/>
				
					<line fill="none" stroke="#292C31" stroke-width="5" stroke-linecap="round" stroke-linejoin="round" stroke-miterlimit="10" x1="538.282" y1="300.23" x2="632.404" y2="300.23"/>
				
					<line fill="none" stroke="#292C31" stroke-width="5" stroke-linecap="round" stroke-linejoin="round" stroke-miterlimit="10" x1="555.606" y1="250.555" x2="615.081" y2="250.555"/>
			</g>
			<g>
				
					<line fill="none" stroke="#E7E7E7" stroke-width="4.7784" stroke-linecap="round" stroke-linejoin="round" stroke-miterlimit="10" x1="582.318" y1="217.54" x2="574.195" y2="225.663"/>
				
					<line fill="none" stroke="#E7E7E7" stroke-width="4.7784" stroke-linecap="round" stroke-linejoin="round" stroke-miterlimit="10" x1="595.801" y1="219.133" x2="576.276" y2="238.656"/>
			</g>
		</g>
		<g>
			<g>
				
					<line fill="none" stroke="#D2D3D4" stroke-width="4.7784" stroke-linecap="round" stroke-linejoin="round" stroke-miterlimit="10" x1="541.508" y1="442.298" x2="635.632" y2="442.298"/>
				
					<rect x="555.606" y="338.469" fill="none" stroke="#292C31" stroke-width="5" stroke-linecap="round" stroke-linejoin="round" stroke-miterlimit="10" width="59.476" height="99.351"/>
				
					<line fill="none" stroke="#292C31" stroke-width="5" stroke-linecap="round" stroke-linejoin="round" stroke-miterlimit="10" x1="538.282" y1="437.819" x2="632.404" y2="437.819"/>
				
					<line fill="none" stroke="#292C31" stroke-width="5" stroke-linecap="round" stroke-linejoin="round" stroke-miterlimit="10" x1="555.606" y1="388.145" x2="615.081" y2="388.145"/>
			</g>
			<g>
				
					<line fill="none" stroke="#E7E7E7" stroke-width="4.7784" stroke-linecap="round" stroke-linejoin="round" stroke-miterlimit="10" x1="582.318" y1="355.129" x2="574.195" y2="363.252"/>
				
					<line fill="none" stroke="#E7E7E7" stroke-width="4.7784" stroke-linecap="round" stroke-linejoin="round" stroke-miterlimit="10" x1="595.801" y1="356.722" x2="576.276" y2="376.245"/>
			</g>
		</g>
		<g>
			<g>
				
					<line fill="none" stroke="#D2D3D4" stroke-width="4.7784" stroke-linecap="round" stroke-linejoin="round" stroke-miterlimit="10" x1="311.867" y1="442.298" x2="405.991" y2="442.298"/>
				
					<rect x="325.965" y="338.469" fill="none" stroke="#292C31" stroke-width="5" stroke-linecap="round" stroke-linejoin="round" stroke-miterlimit="10" width="59.476" height="99.351"/>
				
					<line fill="none" stroke="#292C31" stroke-width="5" stroke-linecap="round" stroke-linejoin="round" stroke-miterlimit="10" x1="308.642" y1="437.819" x2="402.763" y2="437.819"/>
				
					<line fill="none" stroke="#292C31" stroke-width="5" stroke-linecap="round" stroke-linejoin="round" stroke-miterlimit="10" x1="325.965" y1="388.145" x2="385.441" y2="388.145"/>
			</g>
			<g>
				
					<line fill="none" stroke="#E7E7E7" stroke-width="4.7784" stroke-linecap="round" stroke-linejoin="round" stroke-miterlimit="10" x1="352.678" y1="355.129" x2="344.555" y2="363.252"/>
				
					<line fill="none" stroke="#E7E7E7" stroke-width="4.7784" stroke-linecap="round" stroke-linejoin="round" stroke-miterlimit="10" x1="366.16" y1="356.722" x2="346.635" y2="376.245"/>
			</g>
		</g>
		<g>
			<g>
				
					<line fill="none" stroke="#D2D3D4" stroke-width="4.7784" stroke-linecap="round" stroke-linejoin="round" stroke-miterlimit="10" x1="541.508" y1="168.427" x2="635.632" y2="168.427"/>
				
					<rect x="555.606" y="64.596" fill="none" stroke="#292C31" stroke-width="5" stroke-linecap="round" stroke-linejoin="round" stroke-miterlimit="10" width="59.476" height="99.351"/>
				
					<line fill="none" stroke="#292C31" stroke-width="5" stroke-linecap="round" stroke-linejoin="round" stroke-miterlimit="10" x1="538.282" y1="163.947" x2="632.404" y2="163.947"/>
				
					<line fill="none" stroke="#292C31" stroke-width="5" stroke-linecap="round" stroke-linejoin="round" stroke-miterlimit="10" x1="555.606" y1="114.272" x2="615.081" y2="114.272"/>
			</g>
			<g>
				
					<line fill="none" stroke="#E7E7E7" stroke-width="4.7784" stroke-linecap="round" stroke-linejoin="round" stroke-miterlimit="10" x1="582.318" y1="81.258" x2="574.195" y2="89.381"/>
				
					<line fill="none" stroke="#E7E7E7" stroke-width="4.7784" stroke-linecap="round" stroke-linejoin="round" stroke-miterlimit="10" x1="595.801" y1="82.851" x2="576.276" y2="102.374"/>
			</g>
		</g>
		<g>
			
				<rect x="439.467" y="338.469" fill="#E7E7E7" stroke="#292C31" stroke-width="5" stroke-linecap="round" stroke-linejoin="round" stroke-miterlimit="10" width="63.507" height="139.715"/>
		</g>
		<g>
			
				<rect x="427.59" y="478.184" fill="none" stroke="#292C31" stroke-width="5" stroke-linecap="round" stroke-linejoin="round" stroke-miterlimit="10" width="86.28" height="20.588"/>
			
				<rect x="416.805" y="498.772" fill="none" stroke="#292C31" stroke-width="5" stroke-linecap="round" stroke-linejoin="round" stroke-miterlimit="10" width="107.358" height="24.511"/>
			
				<rect x="409.45" y="523.283" fill="none" stroke="#292C31" stroke-width="5" stroke-linecap="round" stroke-linejoin="round" stroke-miterlimit="10" width="123.538" height="22.388"/>
		</g>
		<rect x="450.807" y="425.828" fill="#DBDBDB" width="41.334" height="35.333"/>
		<rect x="473.379" y="383.162" fill="#DBDBDB" width="18.762" height="40"/>
		<rect x="452.212" y="383.162" fill="#DBDBDB" width="18.763" height="40"/>
	</g>
	
		<path fill="#FFFFFF" stroke="#292C31" stroke-width="5" stroke-linecap="round" stroke-linejoin="round" stroke-miterlimit="10" d="
		M452.141,374.828h37.809c0-10.441-8.463-18.905-18.904-18.905C460.604,355.923,452.141,364.387,452.141,374.828z"/>
	<g>
		<ellipse fill="#E7E7E7" cx="457.045" cy="556.637" rx="32.25" ry="4.25"/>
		<g>
			<g>
				<path fill="#FCF060" d="M445.691,461.821c-8.833,0-16.02-7.188-16.02-16.021s7.187-16.021,16.02-16.021
					c8.835,0,16.022,7.187,16.022,16.021S454.526,461.821,445.691,461.821z"/>
				<g>
					<path fill="#292C31" d="M445.692,432.279c7.469,0,13.522,6.054,13.522,13.521s-6.054,13.521-13.522,13.521
						c-7.467,0-13.52-6.054-13.52-13.521C432.172,438.333,438.225,432.279,445.692,432.279 M445.692,427.279
						c-10.212,0-18.52,8.308-18.52,18.521s8.308,18.521,18.52,18.521c10.213,0,18.522-8.308,18.522-18.521
						S455.905,427.279,445.692,427.279L445.692,427.279z"/>
				</g>
			</g>
			<g>
				<path fill="#FCF060" d="M433.975,555.614c-6.108,0-6.768-3.265-6.768-4.668c0-4.877,0.058-40.87,0.058-40.87v-2.258
					c-0.679,0.261-1.411,0.401-2.167,0.401c-0.843,0-1.673-0.173-2.47-0.513c-4.603-1.964-12.535-11.672-12.535-18.146
					c0-6.843,7.561-16.651,16.855-21.865c2.407-1.35,6.774-1.926,14.601-1.926c0.75,0,3.689,0.015,3.689,0.015l1.399-0.01
					c0.739-0.007,1.557-0.015,2.422-0.015c7.07,0,11.174,0.568,13.72,1.901c3.914,2.05,5.479,3.771,7.292,5.765
					c1.158,1.273,2.444,2.687,4.687,4.543c3.313-3.088,8.854-8.919,10.182-13.315c1.213-4.021,4.2-5.453,6.591-5.453
					c2.289,0,4.446,1.189,5.771,3.182c1.55,2.331,1.707,5.41,0.433,8.449c-2.558,6.097-12.026,23.76-21.654,24.901
					c-0.204,0.024-0.416,0.037-0.636,0.037c0,0,0,0-0.001,0c-3.176-0.001-7.828-2.954-11.322-5.567v19.877
					c0,0.183-0.02,0.36-0.057,0.532c0.007,4.538,0.057,36.448,0.057,40.334c0,1.311-0.634,4.36-6.506,4.36
					c-4.03,0-9.503-1.287-11.416-1.77C444.207,554.089,438.31,555.614,433.975,555.614z M427.265,484.929
					c-1.946,1.119-3.879,2.628-4.275,4.167c-0.349,1.354-0.581,2.252,4.275,6.119V484.929z"/>
				<path fill="#292C31" d="M491.531,461.701c2.969,0,5.921,3.344,3.898,8.163c-3.185,7.592-12.061,22.487-19.644,23.387
					c-0.11,0.013-0.223,0.019-0.341,0.019c-4.267,0-13.823-8.29-13.823-8.29v25.1h-0.058c0,0,0.058,36.682,0.058,40.866
					c0,1.395-1.716,1.86-4.006,1.86c-4.578,0-11.446-1.86-11.446-1.86s-7.317,2.168-12.194,2.168c-2.439,0-4.268-0.542-4.268-2.168
					c0-4.878,0.058-40.866,0.058-40.866v-29.079c0,0-8.002,2.827-9.196,7.471c-0.637,2.473-0.566,4.17,5.233,8.772
					c5.05,4.009,2.57,8.474-0.703,8.474c-0.486,0-0.989-0.099-1.488-0.311c-3.858-1.647-11.017-10.47-11.017-15.846
					c0-5.375,6.345-14.505,15.578-19.685c2.571-1.442,8.815-1.606,13.383-1.606c1.35,0,2.554,0.014,3.473,0.014
					c0.075,0,0.148,0,0.218,0c1.035-0.003,2.354-0.024,3.809-0.024c4.325,0,9.839,0.189,12.566,1.617
					c6.447,3.377,5.589,5.519,13.235,11.362c0,0,10.353-8.828,12.478-15.862C488.109,462.808,489.823,461.701,491.531,461.701
					 M491.531,456.701c-4.196,0-7.638,2.771-8.984,7.232c-0.926,3.065-4.584,7.392-7.863,10.654
					c-1.138-1.055-1.958-1.957-2.762-2.842c-1.89-2.078-3.676-4.042-7.98-6.296c-2.93-1.534-7.382-2.187-14.886-2.187
					c-0.872,0-1.696,0.008-2.442,0.014c-0.501,0.005-0.964,0.009-1.381,0.01h-0.204c-0.406,0-0.869-0.003-1.377-0.006
					c-0.639-0.004-1.345-0.008-2.096-0.008c-8.399,0-12.985,0.651-15.829,2.245c-10.168,5.703-18.132,16.265-18.132,24.046
					c0,7.695,8.759,18.186,14.054,20.445c1.002,0.428,2.049,0.665,3.116,0.706c-0.008,4.823-0.057,35.738-0.057,40.234
					c0,1.197,0.447,7.168,9.268,7.168c4.269,0,9.709-1.31,12.254-1.993c2.423,0.591,7.441,1.685,11.386,1.685
					c8.572,0,9.006-5.714,9.006-6.86c0-3.828-0.048-34.837-0.056-40.113c0.037-0.246,0.056-0.497,0.056-0.754v-15.115
					c3.038,1.876,6.21,3.305,8.823,3.305c0.315,0,0.628-0.018,0.931-0.054c13.09-1.553,23.56-26.169,23.664-26.418
					c1.604-3.823,1.366-7.759-0.655-10.799C497.595,458.308,494.659,456.701,491.531,456.701L491.531,456.701z"/>
			</g>
		</g>
		<path fill="rgba(0,0,0,0.1)" d="M457.883,439.912c-0.899,5.973-7.438,16.691-16.831,18.591c3.521,1.121,8.397,1.617,13.426-2.452
			c2.876-2.183,5.808-8.13,4.53-12.555C458.144,440.51,457.883,439.912,457.883,439.912z"/>
	</g>
	<circle fill="#E7E7E7" cx="594.869" cy="498.895" r="38.729"/>
	
		<circle fill="#FFFFFF" stroke="#292C31" stroke-width="5" stroke-linecap="round" stroke-linejoin="round" stroke-miterlimit="10" cx="590.334" cy="494.359" r="38.729"/>
	
		<line fill="none" stroke="#292C31" stroke-width="5" stroke-linecap="round" stroke-linejoin="round" stroke-miterlimit="10" x1="590.334" y1="480.143" x2="590.334" y2="511.028"/>
	
		<line fill="none" stroke="#292C31" stroke-width="5" stroke-linecap="round" stroke-linejoin="round" stroke-miterlimit="10" x1="604.061" y1="495.586" x2="590.334" y2="511.028"/>
	
		<line fill="none" stroke="#292C31" stroke-width="5" stroke-linecap="round" stroke-linejoin="round" stroke-miterlimit="10" x1="571.215" y1="484.065" x2="590.182" y2="503.031"/>
	
		<line fill="none" stroke="#292C31" stroke-width="5" stroke-linecap="round" stroke-linejoin="round" stroke-miterlimit="10" x1="590.334" y1="533.088" x2="590.334" y2="545.671"/>
	
		<line fill="none" stroke="#E7E7E7" stroke-width="4.7784" stroke-linecap="round" stroke-linejoin="round" stroke-miterlimit="10" x1="401.307" y1="110.161" x2="423.974" y2="110.161"/>
	
		<line fill="none" stroke="#E7E7E7" stroke-width="4.7784" stroke-linecap="round" stroke-linejoin="round" stroke-miterlimit="10" x1="423.974" y1="115.078" x2="423.974" y2="100.828"/>
	
		<line fill="none" stroke="#E7E7E7" stroke-width="4.7784" stroke-linecap="round" stroke-linejoin="round" stroke-miterlimit="10" x1="401.307" y1="110.161" x2="401.307" y2="100.828"/>
	
		<line fill="none" stroke="#E7E7E7" stroke-width="4.7784" stroke-linecap="round" stroke-linejoin="round" stroke-miterlimit="10" x1="401.307" y1="100.828" x2="411.474" y2="100.828"/>
	
		<line fill="none" stroke="#E7E7E7" stroke-width="4.7784" stroke-linecap="round" stroke-linejoin="round" stroke-miterlimit="10" x1="635.307" y1="139.328" x2="623.516" y2="139.328"/>
	
		<line fill="none" stroke="#E7E7E7" stroke-width="4.7784" stroke-linecap="round" stroke-linejoin="round" stroke-miterlimit="10" x1="635.307" y1="139.328" x2="635.307" y2="129.994"/>
	
		<line fill="none" stroke="#E7E7E7" stroke-width="4.7784" stroke-linecap="round" stroke-linejoin="round" stroke-miterlimit="10" x1="630.391" y1="129.994" x2="645.474" y2="129.994"/>
	
		<line fill="none" stroke="#E7E7E7" stroke-width="4.7784" stroke-linecap="round" stroke-linejoin="round" stroke-miterlimit="10" x1="515.975" y1="193.272" x2="538.641" y2="193.272"/>
	
		<line fill="none" stroke="#E7E7E7" stroke-width="4.7784" stroke-linecap="round" stroke-linejoin="round" stroke-miterlimit="10" x1="538.641" y1="193.272" x2="538.641" y2="183.938"/>
	
		<line fill="none" stroke="#E7E7E7" stroke-width="4.7784" stroke-linecap="round" stroke-linejoin="round" stroke-miterlimit="10" x1="515.975" y1="193.272" x2="515.975" y2="183.938"/>
	
		<line fill="none" stroke="#E7E7E7" stroke-width="4.7784" stroke-linecap="round" stroke-linejoin="round" stroke-miterlimit="10" x1="507.141" y1="183.938" x2="526.141" y2="183.938"/>
	
		<line fill="none" stroke="#E7E7E7" stroke-width="4.7784" stroke-linecap="round" stroke-linejoin="round" stroke-miterlimit="10" x1="513.641" y1="323.721" x2="536.307" y2="323.721"/>
	
		<line fill="none" stroke="#E7E7E7" stroke-width="4.7784" stroke-linecap="round" stroke-linejoin="round" stroke-miterlimit="10" x1="536.307" y1="323.721" x2="536.307" y2="314.387"/>
	
		<line fill="none" stroke="#E7E7E7" stroke-width="4.7784" stroke-linecap="round" stroke-linejoin="round" stroke-miterlimit="10" x1="513.641" y1="323.721" x2="513.641" y2="314.387"/>
	
		<line fill="none" stroke="#E7E7E7" stroke-width="4.7784" stroke-linecap="round" stroke-linejoin="round" stroke-miterlimit="10" x1="508.807" y1="314.387" x2="527.807" y2="314.387"/>
	
		<line fill="none" stroke="#E7E7E7" stroke-width="4.7784" stroke-linecap="round" stroke-linejoin="round" stroke-miterlimit="10" x1="490.891" y1="323.721" x2="513.557" y2="323.721"/>
	
		<line fill="none" stroke="#E7E7E7" stroke-width="4.7784" stroke-linecap="round" stroke-linejoin="round" stroke-miterlimit="10" x1="513.557" y1="323.721" x2="513.557" y2="314.387"/>
	
		<line fill="none" stroke="#E7E7E7" stroke-width="4.7784" stroke-linecap="round" stroke-linejoin="round" stroke-miterlimit="10" x1="490.891" y1="328.203" x2="490.891" y2="314.387"/>
	
		<line fill="none" stroke="#E7E7E7" stroke-width="4.7784" stroke-linecap="round" stroke-linejoin="round" stroke-miterlimit="10" x1="525.473" y1="333.994" x2="545.14" y2="333.994"/>
	
		<line fill="none" stroke="#E7E7E7" stroke-width="4.7784" stroke-linecap="round" stroke-linejoin="round" stroke-miterlimit="10" x1="525.473" y1="338.476" x2="525.473" y2="324.661"/>
	
		<line fill="none" stroke="#E7E7E7" stroke-width="4.7784" stroke-linecap="round" stroke-linejoin="round" stroke-miterlimit="10" x1="417.291" y1="362.548" x2="417.291" y2="353.973"/>
	
		<line fill="none" stroke="#E7E7E7" stroke-width="4.7784" stroke-linecap="round" stroke-linejoin="round" stroke-miterlimit="10" x1="412.85" y1="353.973" x2="430.307" y2="353.973"/>
	
		<line fill="none" stroke="#E7E7E7" stroke-width="4.7784" stroke-linecap="round" stroke-linejoin="round" stroke-miterlimit="10" x1="396.391" y1="362.548" x2="424.029" y2="362.548"/>
	
		<line fill="none" stroke="#E7E7E7" stroke-width="4.7784" stroke-linecap="round" stroke-linejoin="round" stroke-miterlimit="10" x1="417.215" y1="362.548" x2="417.215" y2="353.973"/>
	
		<line fill="none" stroke="#E7E7E7" stroke-width="4.7784" stroke-linecap="round" stroke-linejoin="round" stroke-miterlimit="10" x1="396.391" y1="366.665" x2="396.391" y2="353.973"/>
	
		<line fill="none" stroke="#E7E7E7" stroke-width="4.7784" stroke-linecap="round" stroke-linejoin="round" stroke-miterlimit="10" x1="406.879" y1="371.986" x2="424.947" y2="371.986"/>
	
		<line fill="none" stroke="#E7E7E7" stroke-width="4.7784" stroke-linecap="round" stroke-linejoin="round" stroke-miterlimit="10" x1="406.879" y1="376.104" x2="406.879" y2="363.412"/>
	
		<line fill="none" stroke="#E7E7E7" stroke-width="4.7784" stroke-linecap="round" stroke-linejoin="round" stroke-miterlimit="10" x1="398.974" y1="225.828" x2="398.974" y2="234.662"/>
	
		<line fill="none" stroke="#E7E7E7" stroke-width="4.7784" stroke-linecap="round" stroke-linejoin="round" stroke-miterlimit="10" x1="405.974" y1="234.662" x2="425.974" y2="234.662"/>
	
		<line fill="none" stroke="#E7E7E7" stroke-width="4.7784" stroke-linecap="round" stroke-linejoin="round" stroke-miterlimit="10" x1="419.974" y1="234.662" x2="419.974" y2="221.828"/>
	<g>
		<path fill="rgba(0,0,0,0.1)" d="M346.127,484.051c0.25-0.927,0.385-1.874,0.385-2.838c0-5.458-4.156-10.394-10.853-13.946
			c0.945-1.708,1.467-3.536,1.467-5.442c0-6.56-6.087-12.234-14.945-14.985c0.834-1.684,1.316-3.56,1.316-5.552
			c0-7.128-6-12.907-13.402-12.907c-7.401,0-13.401,5.779-13.401,12.907c0,1.992,0.481,3.869,1.317,5.552
			c-8.86,2.751-14.945,8.425-14.945,14.985c0,1.906,0.521,3.734,1.466,5.442c-6.698,3.553-10.854,8.488-10.854,13.946
			c0,0.965,0.135,1.912,0.386,2.838c-6.114,5.299-9.77,11.974-9.77,19.236c0,17.218,20.507,31.176,45.803,31.176
			c25.296,0,45.804-13.958,45.804-31.176C355.898,496.025,352.24,489.35,346.127,484.051z"/>
		
			<path fill="#FFFFFF" stroke="#292C31" stroke-width="5" stroke-linecap="round" stroke-linejoin="round" stroke-miterlimit="10" d="
			M341.276,480.498c0.25-0.927,0.385-1.873,0.385-2.838c0-5.458-4.156-10.394-10.854-13.946c0.946-1.708,1.468-3.536,1.468-5.442
			c0-6.56-6.088-12.234-14.947-14.985c0.836-1.684,1.317-3.56,1.317-5.552c0-7.128-6-12.907-13.401-12.907
			c-7.402,0-13.402,5.779-13.402,12.907c0,1.992,0.482,3.869,1.318,5.552c-8.861,2.751-14.946,8.425-14.946,14.985
			c0,1.906,0.52,3.734,1.466,5.442c-6.697,3.553-10.854,8.488-10.854,13.946c0,0.965,0.135,1.912,0.385,2.838
			c-6.113,5.299-9.77,11.974-9.77,19.236c0,17.218,20.506,31.176,45.803,31.176c25.295,0,45.803-13.958,45.803-31.176
			C351.045,492.472,347.389,485.797,341.276,480.498z"/>
		
			<line fill="none" stroke="#292C31" stroke-width="5" stroke-linecap="round" stroke-linejoin="round" stroke-miterlimit="10" x1="305.242" y1="460.28" x2="305.242" y2="513.25"/>
		
			<line fill="none" stroke="#292C31" stroke-width="5" stroke-linecap="round" stroke-linejoin="round" stroke-miterlimit="10" x1="305.242" y1="504.974" x2="319.69" y2="486.501"/>
		
			<line fill="none" stroke="#292C31" stroke-width="5" stroke-linecap="round" stroke-linejoin="round" stroke-miterlimit="10" x1="305.242" y1="485.06" x2="311.666" y2="476.847"/>
		
			<line fill="none" stroke="#292C31" stroke-width="5" stroke-linecap="round" stroke-linejoin="round" stroke-miterlimit="10" x1="305.242" y1="468.557" x2="310.281" y2="462.114"/>
		
			<line fill="none" stroke="#292C31" stroke-width="5" stroke-linecap="round" stroke-linejoin="round" stroke-miterlimit="10" x1="305.242" y1="504.974" x2="292.676" y2="488.906"/>
		
			<line fill="none" stroke="#292C31" stroke-width="5" stroke-linecap="round" stroke-linejoin="round" stroke-miterlimit="10" x1="305.242" y1="485.06" x2="298.889" y2="476.937"/>
		
			<line fill="none" stroke="#292C31" stroke-width="5" stroke-linecap="round" stroke-linejoin="round" stroke-miterlimit="10" x1="304.299" y1="465.335" x2="299.617" y2="459.348"/>
	</g>
	
		<line fill="none" stroke="#292C31" stroke-width="5" stroke-linecap="round" stroke-linejoin="round" stroke-miterlimit="10" x1="446.17" y1="552.293" x2="446.17" y2="512.137"/>
	
		<line fill="none" stroke="#292C31" stroke-width="5" stroke-linecap="round" stroke-linejoin="round" stroke-miterlimit="10" x1="305.242" y1="530.91" x2="305.242" y2="545.671"/>
</g>
</svg>
