<?xml version="1.0" encoding="utf-8"?>
<!-- Generator: Adobe Illustrator 17.0.0, SVG Export Plug-In . SVG Version: 6.00 Build 0)  -->
<!DOCTYPE svg PUBLIC "-//W3C//DTD SVG 1.1//EN" "http://www.w3.org/Graphics/SVG/1.1/DTD/svg11.dtd">
<svg version="1.1" id="Layer_1" xmlns="http://www.w3.org/2000/svg" xmlns:xlink="http://www.w3.org/1999/xlink" x="0px" y="0px"
	 width="835.304px" height="451.836px" viewBox="0 0 835.304 451.836" enable-background="new 0 0 835.304 451.836"
	 xml:space="preserve">
<path fill="#E7E7E7" d="M516.949,331.439c0,0.447,0,0.893,0,1.34c-0.44-0.193-0.895-0.341-1.364-0.443
	c0,7.266-2.647,16.015-5.828,22.553c-4.668,9.594-9.367-2.345-9.367-7.212c0-0.495,2.102-2.995,2.402-3.731
	c1.297-3.184-1.262-5.636-0.092-8.827c0.927-2.528,4.556-2.951,6.356-4.726c2.599-2.563,3.261-4.446,4.606-7.427
	C516.727,323.366,516.241,329.388,516.949,331.439z M583.658,273.624c0,2.178,2.412,3.557,3.849,1.276
	c2.283-3.626-1.27-5.71-2.732-8.494C584.775,268.884,583.658,271.148,583.658,273.624z M643.005,304.676
	c0-4.906,0.434-5.364-2.448-9.386c-0.745-1.039-2.992-4.878-2.992-5.594c0-2.792-9.63-5.752-10.627-8.753
	c-1.857-4.086-4.445-2.808-7.685-4.195c0.231,3.252,3.264,3.235,3.994,5.087c0.636,1.396,4.872,8.705,5.979,8.972
	C628.978,290.746,643.005,309.617,643.005,304.676z M650.452,288.976c0,1.932,2.155,3.702,2.155,4.728
	c2.18,3.726,0.027,3.816,4.407,4.459c0.529,2.72,0.826,0.805,2.79,0.805c4.672,0,2.487,2.527,7.043,1.244
	c0-3.288,1.662-5.404,2.69-8.17c0.64-1.723,3.54-3.639,3.63-4.139c-1.566,0-4.842-5.805-3.042-6.424
	c-0.601-2.012,3.45-2.055,3.45-3.572c0-1.068-4.692-5.351-5.949-3.881c-2.333,2.73-3.326,4.567-6.462,6.296
	c-0.996,0.711-3.836,2.851-4.637,3.739c-1.182,1.334-0.799,4.022-3.276,4.022C652.421,288.083,650.452,287.406,650.452,288.976z
	 M678.595,290.039c3.812,0,7.349,1.109,8.646-3.297c-3.568,3.195-10.544-1.165-11.986,3.8c-0.487,1.677-3.625,15.021,0.382,15.021
	c2.085,0-0.181-6.621,2.329-7.578c-0.586,2.132,1.488,3.656,0.962,5.44c5.427-0.873,0-4.831,0-7.756c1.773,0,3.693-2.059,4.239-3.3
	c-1.008-0.195-4.772,1.263-4.634,1.238C676.978,295.78,673.74,290.039,678.595,290.039z M663.246,312.607
	c1.199,0,1.832,1.317,2.554-0.349c-1.969-0.924-5.701-1.3-7.188-2.942c0.411,0.207,2.868-0.106,2.961-0.627
	c-0.623,0.178-2.443,0.475-3.042,0.351c-1.189-0.563-2.391-1.098-3.605-1.604c-0.769,0.5-1.569,0.947-2.399,1.339
	c-2.404,0-8.437-5.789-9.999-0.801c1.998,0,2.009,2.567,4.09,2.357c2.077-0.21,4.056,0.681,6.151,0.681
	c1.021,0,3.908,1.166,5.002,1.245C659.042,312.347,663.667,312.607,663.246,312.607z M680.05,313.776
	c1.05-0.225,1.822-0.817,2.315-1.778c-1.11,0.533-6.966,0.2-6.966,0.887C675.399,314.205,679.338,313.926,680.05,313.776z
	 M671.403,312.343c0,2.1-2.963-1.148-2.963,1.25c0,0.869,4.161,0.191,4.883,0.091C671.766,311.946,673.938,313.082,671.403,312.343z
	 M675.966,314.843c-0.55,0.039-2.318-0.38-2.318,0.548c0,0.325,2.514,1.947,2.878,2.13
	C678.185,317.522,675.966,315.187,675.966,314.843z M667.324,312.259c0.163-0.392-2.168,1.517-0.076,1.517
	C668.304,313.204,668.329,312.699,667.324,312.259z M687.086,315.029c1.527,0,3.87-0.639,4.721-2.056
	c-3.905-2.831-7.904,4.727-7.602,4.727C685.598,317.7,687.05,315.029,687.086,315.029z M709.163,306.099
	c0-2.815-2.225,2.768-1.127,2.768C708.274,308.867,709.163,306.222,709.163,306.099z M689.41,299.316
	c0.163,0.841,0.639,1.406,1.428,1.696C693.428,301.012,689.41,297.023,689.41,299.316z M693.562,299.316
	c0.85,0.125,6.56,0.97,6.56,1.084C700.121,298.031,693.562,297.757,693.562,299.316z M695.323,287.458
	c-1.256-0.281-1.949-1.055-2.078-2.323c-1.137,0.647-0.387,7.139,0.956,7.139c-1.521-2.341-1.172-1.759,0.961-2.32
	C695.028,288.683,695.323,288.514,695.323,287.458C693.958,287.1,695.323,287.999,695.323,287.458z M743.236,305.128
	c-0.799,0-1.598,0-2.397,0c0.235,1.144,1.745,1.01,2.322,1.776c4.328,1.938,6.79-5.352,5.841-5.352
	C747.822,301.552,745.925,306.388,743.236,305.128z M736.836,305.924c-2.139-1.195-4.726-4.224-6.638-5.887
	c-1.89-1.643-5.232-0.799-7.035-2.859c-0.383-0.036-6.138-1.061-6.397-2.675c-1.104,0.203-7.603,7.239-7.603,2.94
	c-2.54,0-0.302-3.239-1.2-4.006c-1.221-0.726-2.502-1.32-3.845-1.783c-1.036,0.408-2.022,0.914-2.956,1.519
	c-1.644,0,2.23,5.029,5.836,3.476c-0.672,1.275-2.995,0.91-4.079,1.514c0.345,1.524,2.784,4.819,3.841,1.696
	c2.094,4.268,10.192,1.826,10.887,8.017c0.152,1.358-1.736,4.382,0.067,4.382c1.897,1.197,3.22-0.846,5.914,1.517
	c5.832,5.114,5.593-8.903,12.173-1.283c2.893,3.35,7.044,7.069,10.553,4.491c-1.403-0.539-4.964-1.997-5.752-3.475
	C738.111,309.374,739.754,307.548,736.836,305.924C734.918,304.852,737.64,306.371,736.836,305.924z M750.196,300.121
	c-0.799-1.149-1.839-2.009-3.12-2.582c0.268,0.805,4.234,4.998,4.639,4.998C751.202,301.329,751.125,301.153,750.196,300.121
	C749.314,299.142,750.841,300.837,750.196,300.121z M755.393,304.852c-0.03,0.176,1.222,3.302,1.602,3.302
	C758.965,308.154,755.357,304.826,755.393,304.852C755.237,305.755,755.879,305.203,755.393,304.852z M770.832,316.808
	c0.004,0.91,0.432,1.533,1.284,1.868C771.641,317.673,771.937,317.58,770.832,316.808
	C770.758,317.339,771.474,317.257,770.832,316.808z M767.313,315.387c0,1.565,1.84,1.246,2.642,1.246
	C769.323,315.714,768.442,315.299,767.313,315.387C767.313,316.452,768.593,315.387,767.313,315.387z M767.718,311.903
	c0.082,0.704,1.516,2.841,2.32,2.841C769.629,313.418,768.832,312.607,767.718,311.903z M763.149,309.758
	c0.189,0.221,0.947,2.894,2.805,1.784C765.134,310.767,764.199,310.172,763.149,309.758z M759.633,307.803
	c-0.029,0.403,0.423,0.87,1.523,0.972C760.753,308.288,760.245,307.964,759.633,307.803
	C759.627,307.883,760.29,308.178,759.633,307.803z M759.234,307.534C759.237,307.536,760.298,308.247,759.234,307.534
	C759.376,307.649,759.234,307.534,759.234,307.534z M736.113,401.645c-0.594,0-4.391-1.556-4.391,0c0,2.558,1.83,6.4,3.829,7.975
	c2.393,1.885,4.119-2.775,4.604-4.313C741.663,400.536,739.115,401.645,736.113,401.645z M740.119,399.859
	c0.273-1.449,0.645-1.188-0.798-1.509C739.21,399.056,739.476,399.559,740.119,399.859
	C740.202,399.42,739.39,399.597,740.119,399.859z M713.322,386.747c0.719,0.804,1.92,0.627,2.8,0
	C714.995,386.121,714.84,385.944,713.322,386.747z M700.764,321.353c0.509-0.436,1.207,0.084,0.793-1.333
	c-1.092-0.047-2.158,0.103-3.197,0.449C699.057,321.027,699.858,321.322,700.764,321.353z M750.196,356.061
	c-1.36-1.517-3.17-2.523-4.059-4.453c-0.837-1.817-2.768-2.14-3.136-3.485c-1.184-4.475-5.802-4.845-6.888-8.477
	c-0.727-2.554-1.78-10.257-4.496-11.252c-2.519-0.922-3.787-7.057-4.059-9.809c-3.416,2.029-2.239,7.444-2.239,10.631
	c0,1.837-0.519,4.081-1.222,5.769c-1.726,4.139-5.307-0.528-7.795-1.541c-5.207-2.12-4.47-3.501-4.179-8.252
	c4.534-3.785-5.985-3.703-9.203-5.173c0.331,0.788,0.811,1.472,1.439,2.053c-6.279,2.09-4.559,3.228-7.435,8.021
	c-1.069-0.538-1.713-1.67-2.958,0.274c-0.396-3.809-2.544-3.511-4.956-2.066c-2.168,1.3-2.938,5.886-5.121,4.656
	c-0.027,1.061-0.322,2.04-0.883,2.936c-2.46-4.722-1.874,2.144-2.743,3.433c-2.818,4.181-8.594,3.986-12.82,5.31
	c-1.732,0.542-6.681,4.706-6.681,4.38c-1.295,2.967,2.409,8.715,0.973,10.966c-2.478-2.744,1.175,5.819,1.543,7.29
	c0.704,2.814,3.878,9.039,2.213,11.77c-5.744,9.417,12.051,1.63,13.675,2.537c5.172,0,5.367-3.708,10.353-4.273
	c4.245-0.481,7.336-3.272,11.684-2.695c5.558,0.738,6.168,2.906,8.711,7.162c2.66,4.453,3.81-1.087,6.37-3.947
	c0.088,1.683-0.129,5.933-2.33,6.43c0,2.247,2.97-0.79,2.97-1.963c1.068,1.191,0.886,2.257,0.231,3.74
	c0.94-0.489,1.167,0.259,2.557-0.619c0,4.496,3.079,8.661,7.39,9.714c2.022,0.494,2.804,0.346,4.058-1.103
	c1.437-1.661,3.538,1.831,5.194,2.094c0.577-3.874,6.819-3.27,8.083-6.343c0-6.648,6.562-11.235,6.562-17.299
	C750.999,366.49,752.543,362.192,750.196,356.061z M798.437,402.442c-1.335,0-2.886,0.812-2.886-1.677
	c-2.353,1.136-4.244,6.496-6.376,8.565c-2.453,2.381-11.783,6.877-4.771,9.706c5.071,2.046,6.588-2.492,8.078-6.513
	c0.825-2.227,3.612-0.155,3.275-2.79C795.467,407.465,798.437,405.307,798.437,402.442
	C798.184,402.442,798.437,403.161,798.437,402.442z M808.111,391.659c-2.695,0-5.684,2.027-5.684-2.769
	c-1.246,1.066-1.59,1.369-2.51-0.533c-1.184-2.45-2.761-3.479-4.208-5.973c0.8,3.537,3.032,5.001,4.081,8.025
	c0.38,1.631-2.072,7.127-0.996,7.612c2.952,1.332,1.209,9.32,5.394,2.282c1.096-1.822,0.817-4.024,2.968-3.642
	C807.403,396.243,809.519,391.659,808.111,391.659z M808.347,337.408c-0.349-1.676-2.792-2.784-2.792-0.172
	C805.555,338.078,807.938,337.86,808.347,337.408z M808.752,334.117c0,1.952,2.277-0.421,2.474-1.16
	C810.153,332.813,809.328,333.2,808.752,334.117z M688.047,265.903c-0.221,0.731-2.38,5.666-3.389,3.423
	c-1.632-3.627-5.255,5.588-3.543,5.598c0.869,0.012,0.946-2.793,1.443-3.306c1.463,0.177,1.124,0.051,2.7,0.059
	c0.538,1.698,0.2,5.023,2.848,5.023c1.001,0.014,0.191-3.116,0.644-3.803c0.363,0.721,0.49,0.869,0.381,0.445
	c0.172,0.672,0.468,1.282,0.888,1.831C690.052,273.458,691.926,265.954,688.047,265.903
	C687.977,266.132,688.561,265.909,688.047,265.903z M670.999,268.982c2.176-0.528,3.239-3.237,5.106-4.624
	c-0.42-0.305-0.633-0.724-0.637-1.257C674.27,264.312,671.545,267.334,670.999,268.982z M675.048,252.613
	c-0.036,1.5,1.912,1.31,2.539,0.898c-0.592,2.196,1.629,3.98,3.879,4.038c-0.306-0.488-0.322-0.981-0.05-1.479
	c0.109,0.181,2.968,3.013,2.948,3.012c0.465,0.011-0.744-2.648-0.687-2.967c-0.894-0.021-3.229-2.078-3.422-0.463
	c-3.481-1.758-0.439-4.79-0.401-6.986c0.023-1.49-1.17-2.983-1.17-4.44c-2.678,1.308-0.096-0.623-2.257-0.673
	C675.763,243.55,675.067,251.304,675.048,252.613C675.037,253.077,675.066,251.365,675.048,252.613z M687.269,259.604
	c-0.802-0.501-1.554-0.519-2.257-0.053c0.215,1.068,3.312,2.792,0.392,2.73c0.291,0.995,1.064,3.07,2.071,3.07
	c-0.169-0.676-0.554-1.278-0.619-2.029C689.165,262.455,687.269,261.372,687.269,259.604
	C686.691,259.587,687.269,259.837,687.269,259.604z M681,261.122c-1.171-1.433-0.522,3.716-0.52,3.624
	C682.718,263.208,683.528,262.481,681,261.122C680.905,261.005,681.575,261.431,681,261.122z M683.203,263.401
	c-1.07,0.214-1.988,4.708,0.147,4.742C683.326,268.143,685.281,262.761,683.203,263.401
	C682.834,263.475,683.94,263.174,683.203,263.401z M683.889,266.446c0.197-0.447,1.345-1.974,1.359-2.932
	C684.068,263.515,684.15,265.399,683.889,266.446z M686.155,265.478c0.355-0.488-3.225,1.52-1.19,1.52
	C685.768,266.837,686.165,266.33,686.155,265.478C685.934,265.782,686.147,266.336,686.155,265.478z M684.623,261.178
	c0.016-1.038-0.949-1.871-1.793-1.978C682.757,261.081,684.636,260.052,684.623,261.178
	C684.639,260.176,684.619,261.573,684.623,261.178z M678.803,259.752c1.749,0-0.759-2.882-2.07-2.99
	C677.026,257.384,678.056,259.734,678.803,259.752C679.099,259.752,678.367,259.742,678.803,259.752z M679.575,257.274
	c0.141,0.158,0.577,0.095,0.729,0.019C680.161,257.14,679.727,257.202,679.575,257.274z M676.926,232.858
	c2.153,0,2.948-6.046,2.24-7.415C678.019,223.221,672.975,232.858,676.926,232.858z M653.973,238.837
	c-1.87,0-6.27,2.534-3.977,4.894C652.684,246.498,656.397,238.837,653.973,238.837z M643.563,296.739
	c0.359,1.121,0.865,1.789,2.163,1.775c-0.488-1.621-1.506-1.992-2.077-3.916c-0.745,0.131-1.305,0.518-1.682,1.16
	C642.457,296.153,642.989,296.48,643.563,296.739C643.649,297.008,643.246,296.019,643.563,296.739z M648.363,299.054
	c0.297-0.357,0.593-0.714,0.89-1.071c-0.814-0.301-0.717-0.48-1.524-0.445C647.734,297.539,647.643,299.054,648.363,299.054z
	 M628.056,293.605c-0.003-0.218-1.247,2.041,0.795,2.504C628.268,295.334,628.003,294.499,628.056,293.605z M624.927,288.177
	c-0.131-0.293-0.024,2.127,1.122,2.127C626.082,289.413,625.709,288.705,624.927,288.177z M697.561,203.338
	c0,1.366,1.758,1.215,1.758-0.185c0.344,1.934-0.606,5.529,0.882,5.529c1.974,0,2.721-5.099,2.003-5.975
	C702.362,202.706,697.561,199.204,697.561,203.338z M704.926,204.04c1.023,0,6.02-4.722,3.109-4.722
	C705.646,199.319,702.509,204.04,704.926,204.04z M713.557,193.158c-1.137,0-1.037,2.759-2.556,2.759c-0.902,0.431-3.197,0-4.186,0
	c-1.294,0-6.295,2.796-6.295,4.113c0,0.904,6.757-0.667,7.348-1.552c1.812-2.716,2.563,3.255,3.771,3.595
	c0.731-1.594,1.277-1.907,2.721-2.399c-0.404,0-1.393-2.143-0.319-2.143c1.411,0,3.577,0.888,5.119,0.888
	c0.406-1.021,1.126-1.733,2.16-2.137c-0.227,0.462-0.253,0.937-0.078,1.425c2.17-0.793,6.231-18.82,2.559-18.82
	c-0.272,0,0.004,0.893,0.395,0.893c-1.32,1.223-2.563,0.737-2.563,4.099c0,2.836-3.303,8.473-6.716,8.473
	c-0.579-0.375-0.579-0.85,0-1.427C714.43,191.65,713.977,192.394,713.557,193.158z M722.599,173.263
	c-0.507,2.022-1.704,2.738-1.033,5.167c0.79-0.157,1.902-0.573,2.389-1.333c-3.159-3.573,2.758-2.02,4.876-0.53
	c1.758-2.922,2.971-2.143,5.372-3.925c-1.336-0.361-0.768-1.423-0.484-2.236c-0.647-0.468-2.769,0.176-3.665-0.29
	c-1.768-0.92-2.683-2.821-4.251-3.985C724.222,168.733,725.091,172.794,722.599,173.263z M734.121,170.588
	c-1.148,1.869,1.854-0.833,1.992-1.074C735.339,169.283,734.607,169.784,734.121,170.588
	C733.956,170.857,734.423,170.088,734.121,170.588z M735.717,169.165C735.84,169.227,736.172,169.394,735.717,169.165
	L735.717,169.165z M740.202,165.945c-0.751,0-1.952,2.412-1.768,2.412c0.935,0,2.671-2.081,2.964-2.412
	C740.999,165.945,740.6,165.945,740.202,165.945z M743.959,165.15c0.759-0.36,1.213-0.956,1.36-1.788
	C744.157,163.362,743.869,165.15,743.959,165.15z M728.76,140.253c-0.374-1.357-1.025-3.455-1.519-4.1
	c-0.004,2.554-1.413,3.297-1.836,5.628c-0.459,2.527,1.042,4.498,1.042,7.022c0,1.743-0.27,15.274-0.25,15.274
	c2.131,0,1.518-3.189,3.763-1.159c-0.693-1.642-2.324-2.588-2.324-4.553c0-1.563,1.422-8.219,4.087-4.006
	C730.704,149.793,729.89,144.726,728.76,140.253C728.441,139.096,729.075,141.503,728.76,140.253z M520.787,68.261
	c3.993-0.792,2.244,3.124,5.594,3.124c1.657,0,4.653,0.626,6.805,0.626c-1.676-3.796-5.707-3.216-4.324-8.694
	c1.642-6.5,6.538-7.244,10.472-11.312c2.48-2.564,5.781-4.199,9.258-4.932c2.344-0.495,10.747-2.502,10.747-5.578
	c0-5.663-9.881,0.852-11.095,1.539c-3.984,2.251-7.079-0.497-11.152,1.987c-1.383,0.844-9.225,5.167-8.826,5.869
	c0.889,1.565-0.717,3.043-1.8,3.913c-2.995,2.408-1.072,1.654-0.883,4.269C522.785,59.856,517.68,65.899,520.787,68.261z
	 M532.865,71.475C533.027,71.689,533.526,72.24,532.865,71.475C532.886,71.504,532.865,71.475,532.865,71.475z M818.506,82.093
	c-7.134-4.637-17.38-10.133-26.242-8.277c-4.701,0.985,1.717,8.727-5.404,2.544c-5.037-4.374-17.829,2.795-20.614-3.476
	c-3.589-8.083-13.163-0.228-17.731-4.622c-5.887-5.59-14.198-9.446-23.098-7.291c-2.634,0.638-4.048,2.571-4.605,5.109
	c-0.596,2.711-2.069,1.738-4.802,1.738c-2.32,0-4.64,0-6.96,0c-2.597,0-4.081-2.066-6.528-2.231
	c-1.487,7.415-6.797,1.874-6.797-3.12c0-1.669,2.61-2.466,0.201-4.22c-3.175-2.312-13.406-5.025-13.406,1.092
	c-2.819,1.136-8.199,0.057-11.207-0.537c-4.701-0.928-11.166-1.354-15.067-4.419c-0.514-0.404-9.35,6.057-9.135,3.629
	c0.504-5.669,14.063-5.301,14.77-11.804c0.402-3.691-6.918-5.154-9.421-5.154c-2.092,0-4.184,0-6.275,0
	c-1.489,0-3.037-4.907-6.455-4.907c-4.739,0-7.549,5.566-11.772,7.343c-5.55,2.336-6.676-0.272-11.59,0.721
	c-5.007,1.012-13.831,2.706-16.229,7.942c-2.683,5.855-7.244,2.33-12.531,4.338c-6.657,2.528,2.51,7.815-6.655,6.988
	c-2.109-0.19-5.333,3.275-6.325,2.573c-1.579-1.118-0.901-3.899-1.926-5.366c-0.375,2.597-2.039,4.075-4.161,5.347
	c0.688,2.69,4.006,5.149,1.593,8.035c-1.198,1.439,2.628,8.657,0.654,8.657c-5.645,0-3.793-16.597-2.882-19.71
	c1.548-5.295-9.908,0.355-10.915,1.416c-4.162,4.385-3.124,9.792,0.753,14.094c2.869,5.013-1.797,2.446-4.228,1.035
	c-2.946-1.71-10.163-6.365-13.527-3.921c-1.421,1.033,1.935,4.732-0.823,5.841c-0.89,0.358-2.084-1.265-2.625-1.685
	c-1.667-1.292-5.52,1.187-7.196,1.629c-4.665,1.23-5.739-2.789-10.34-0.312c-3.567,1.92-6.643,5.098-10.419,6.584
	c-4.003,1.576-2.151-4.563-2.716-6.405c-0.973-3.172-5.292,4.363-3.607,6.284c3.738,4.26-5.759,2.555-6.768,4.681
	c-2.126,4.481-4.226,6.112-9.344,3.668c0.286,1.118-0.271,2.446,0,3.569c-4.495-0.447-3.813-5.591-5.6-8.481
	c4.202,0,9.745,2.336,13.588-0.02c4.157-2.549,0.879-6.103-2.234-7.658c-4.858-2.427-10.146-4.762-15.217-6.706
	c-3.221-1.235-6.519-0.266-9.096-2.561c5.731-2.241-0.019-4.544-0.802-2.233c-0.801-0.424-1.068-1.109-0.801-2.055
	c-2.194,1.528-2.19,3.355-3.438,0.89c-0.865,1.262-2.011,2.156-3.438,2.68c0.681-0.879,1.242-1.829,1.682-2.85
	c0,0.389-10.954,0.226-6.397,2.136c-1.539,0.947-2.926,0.611-3.844,2.5c0-0.505,0-1.011,0-1.516
	c-1.701,0.089-1.578,2.05-2.961,2.403c-0.769-1.492-4.09-0.764-2.803,0.718c-1.468,0.93-2.37-0.268-3.435,1.606
	c0.448-0.082,0.876-0.023,1.282,0.178c-2.859,1.602-1.804,3.045-4.322-0.266c-0.508,0.558-2.419,1.506-2.562,2.315
	c-0.238,2.52,3.658-4.79-0.404,1.521c1.638-0.347,3.213-0.884,4.722-1.611c-0.969,4.547-6.621,7.416-8.878,11.418
	c0.54,0-3.069,5.283-3.094,5.311c-1.884,2.208-7.05,4.116-3.702,5.13c-3.712-0.465-6.695,4.492-9.298,6.18
	c-1.524,0.988-0.623,4.458-0.227,5.76c0.965,3.178-0.396,1.435-0.396,4.114c0.646-0.373,1.341-0.519,2.084-0.439
	c-0.615,0.829-1.461,2.768-0.538,3.479c4.431,3.413,7.886-0.386,10.375-4.375c1.716,2.746,4.404,8.93,4.404,12.321
	c0,6.573,6.438,2.219,8.432,0.001c2.385-2.653,0.526-2.232,0.526-4.467c0-4.247,2.745-3.71,4.785-6.512
	c1.624-2.231-0.69-4.665-2.951-5.091c0-2.586-1.017-4.187,0.404-6.955c1.187-2.383,4.865-3.43,6.908-4.942
	c3.074-2.275,0.758-4.44,2.708-6.909c1.578-1.998,6.124-2.163,8.02-0.544c2.602,2.223-3.502,5.491-4.741,7.139
	c-1.711,2.275-4.738,2.721-4.738,5.255c0.059,1.337,0.566,2.467,1.523,3.39c-0.818,1.521-2.229,2.385-0.03,4.224
	c2.489,2.08,13.188,2.742,14.905-1.106c4.747,7.255-5.931,3.32-9.795,5.526c-3.709,2.117,2.493,4.073,1.039,7.017
	c-1.292,2.616-3.134-1.39-4.444-1.39c-3.125,0-2.776,6.541-3.608,8.234c-0.771,1.569-6.277,6.43-4.869,3.366
	c-2.743-1.321-12.388,5.836-11.519,0.978c-3.117-0.443-4.117,1.457-6.978,0.535c-1.481-0.477-2.52-2.868-1.318-4.679
	c2.999-4.518-0.955-2.335,1.1-7.361c-5.432,4.351-5.12,5.21-3.241,11.863c0.756,2.677-3.232,3.479-5.241,3.479
	c-4.898,0-4.917,6.877-9.274,8.473c-3.356,0.787-3.845,8.209-9.206,4.46c0.429,1.074,0.719,3.053-0.396,3.385
	c-0.372,0.111-9.831-0.212-5.199,2.401c8.466,4.774,6.24,5.537,6.24,14.03c-4.702,0-9.571-0.81-14.242-0.81
	c-5.618,0-2.634,15.406-2.634,18.61c0,2.73,4.548,0.216,6.26,3.464c0.615,1.168,6.95-0.575,8.133-1.193
	c2.78,0.923,5.116-6.316,5.116-7.14c0-5.016,8.288-6.376,7.444-9.813c-1.323-5.386,6.645-1.401,8.968-3.137
	c5.515-4.123,5.673-2.449,9.263,2.689c-0.231-0.876,16.379,13.025,9.524,13.025c0,1.968,3.601-2.477,3.601-2.499
	c0-4.095-2.31-3.788,2.886-2.679c0.432-3.475-5.212-2.716-5.212-5.979c-5.622,0-2.665-4.443-6.796-5.97
	c-4.157-1.582-0.676-4.873,0.884-5.978c2.995,3.431,6.007,6.816,10.72,9.458c4.487,2.501,2.948,12.863,8.637,13.647
	c-1.154,2.155-0.727,4.546,2.477,4.281c-0.538-0.298-0.265-3.527-0.473-4.281c1.053,1.195,2.265,1.672,3.596,0.804
	c-1.277-1.445-3.087-2.297-2.807-4.368c-1.607-4.096-1.558-1.614,1.445-1.614c1.331-5.944,7.48,0.59,11.365-3.658
	c-0.821-1.349-2.648-1.96-2.648-3.829c0-2.226,2.242-2.92,2.242-5.087c0-2.288,2.399-3.554,2.077-5.264
	c4.178-1.274,3.156-4.594,6.922,0.492c2.297,3.102,5.599,4.794,8.596,0.573c-8.189,0,1.962-4.697,4.404-5.703
	c-1.388,2.298-0.338,4.798-3.841,5.799c0.605,1.587,13.877,9.936,11.611,11.323c-5.11,2.401-8.929,2.86-13.922-0.068
	c-1.532-0.898-14.888,1.072-14.888,2.039c0.175,0.378,0.387,0.734,0.637,1.069c-1.685,0.942-7.197-0.006-7.197,3.025
	c0,1.609,2.628,0.646-0.311,3.936c0.872,0.488,5.587,4.481,4.073,4.988c1.497-0.061,2.165,0.015,3.389,1.015
	c2.366,1.934,2.137-1.453,4.129-1.453c2.714,0,3.096,4.043,6.39,1.512c2.264-1.74,2.405-0.613,4.726-1.602
	c-0.668,2.413,0.667,5.692-1.019,7.856c-1.624,2.085-3.325,6.448-2.7,8.927c-0.001-0.001-5.83-1.078-6.677-1.078
	c-5.762,0-8.774,1.461-14.797-1.074c-3.088-1.298-11.444-6.518-11.444,1.512c0,6.619-12.15-4.907-14.549-4.907
	c-2.407-1.038-5.849,0.249-5.849-4.189c0-2.857,1.051-5.104,1.203-7.673c-2.198,0.433-1.636-1.067-3.596-1.067
	c-1.75,0-2.433,1.841-4.342,1.022c-1.098-0.471-8.323,0.113-9.816,0.412c-4.112,0.824-9.415,5.519-13.199,5.519
	c-2.51,0-4.823-0.64-6.801-2.229c-1.758,1.563-3.158,4.626-4.81,6.578c-1.478,1.746-3.935,3.953-4.28,6.369
	c-0.316,2.215,0.151,4.489-1.354,6.394c-2.593,3.283-6.434,3.151-8.587,6.884c-1.712,2.968-6.408,10.102-6.408,13.484
	c0,6.076,3.215,10.831-0.493,16.662c-2.769,4.355,2.142,10.335,5.936,13.395c3.751,3.345,4.847,8.249,9.057,11.55
	c5.853,4.59,6.724,1.648,13.498,1.648c2.072,0,4.277,2.375,6.199,0.706c1.639-1.424,4.061-2.138,6.042-2.928
	c6.214-2.477,6.419-0.038,10.34,3.469c2.395,2.142,6.029-0.718,8.562,2.442c1.773,2.212,0.397,6.891-0.839,9.195
	c-2.643,4.926,3.493,8.823,5.935,12.285c2.578,3.767,2.635,10.86,3.969,15.189c1.453,4.717-1.742,6.945-3.613,10.755
	c-2.975,6.059,0.824,12.505,3.639,17.764c1.981,3.864,1.266,7.22,2.396,11.509c1.254,4.76,3.844,9.66,6.626,13.706
	c1.536,2.235,0.802,10.44,2.975,10.016c2.618,5.321,8.486-2.784,12.082-0.443c1.647,1.073,5.599-0.981,7.119-1.776
	c4.086-2.225,6.048-7.03,8.03-10.962c1.008-1.999,2.874-3.235,3.909-5.206c1.707-3.253-1.748-3.091,0.458-6.016
	c3.24-4.297,6.004-1.495,6.004-8.153c0-2.361-2.241-3.724-2.241-5.976c0-1.411,2.266-3.062,2.93-4.255
	c1.734-3.114,5.971-3.805,8.599-5.902c4.881-3.894,2.12-15.152-0.036-19.762c-7.229-15.456,13.278-24.264,19.3-34.833
	c1.776-3.116,12.304-20.709,3.755-17.728c-2.919,1.017-6.462,0.738-9.117,1.744c-4.196,1.422-2.421,0.717-5.835-2.234
	c2.399-3.19-8.356-8.973-8.995-12.065c-0.69-3.342-1.487-4.316-3.742-6.693c-1.905-2.007-0.43-4.167-1.022-6.489
	c-2.932-2.592-3.9-8.251-5.706-11.811c-1.728-3.406-5.086-7.654-5.096-11.558c1.284,1.431,2.218,5.447,4.407,5.802
	c0.51-1.472,0.996-2.952,1.457-4.44c-0.522,3.443,2.887,11.438,5.179,13.985c1.334,1.459,2.21,1.183,3.441,3.564
	c1.568,3.033-0.383,7.041,4.017,8.158c0,3.319,2.888,5.381,4.572,7.797c1.553,2.228,0.271,6.585,1.933,9.389
	c1.862,3.12,5.845,1.526,8.833,0.084c1.753-0.906,3.27-2.781,5.198-3.305c1.427-0.37,2.838-0.792,4.233-1.268
	c4.632-1.678-0.06-0.536,2.218-2.737c1.604-1.55,4.434-1.904,6.514-2.331c0-0.548,3.974-5.165,4.558-5.165
	c1.695,0,0.609-4.019,3.513-4.019c0-3.772,2.547-2.892,0.797-6.337c-1.979-3.476-7.625-3.582-6.472-9.184
	c-3.064,2.564-3.962,6.067-8.641,6.067c-4.692,0-2.224-3.148-2.798-5.713c-0.517,0.55-1.05,1.085-1.599,1.603
	c-0.322-3.246-4.311-4.878-5.119-8.468c-1.587-6.9,4.353-4.546,6.322-0.182c0.793,1.783,4.106,4.872,6.239,5.624
	c2.726,0.648,3.781-1.341,5.681-1.341c1.794,0,1.624,2.628,2.469,3.567c0.893,0.953,4.31,0.905,5.292,1.08
	c2.861,0.508,5.074,0.79,7.914,0.616c0.477-0.524,6.312-0.895,7.194-0.626c1.561,0.58,2.015,3.832,3.305,4.974
	c1.859,1.647,3.182,1.272,5.34,1.898c-1.146,1.245-1.822,0.781-3.039,1.693c4.052,4.537,5.185,4.556,8.468-0.084
	c0,7.858,1.867,13.536,4.127,21.494c1.16,4.083,7.638,22.511,10.376,11.15c0.488-2.025,1.783-1.03,2.139-1.959
	c0.375-0.977-0.247-3.63,0.086-4.798c0.785-2.759-0.086-4.157-0.086-6.798c0-2.048,3.895-3.169,5.203-4.647
	c3.242-3.599,9.405-7.174,10.552-11.773c1.326-4.222,8.721,1.411,8.721-4.549c2.714,0.611,7.808,10.38,8.641,13.206
	c1.023,5.779,0.55,7.492,5.521,1.964c4.742,5.187,3.518,15.37,3.518,21.761c0,1.325,1.338,0.051,2.108,1.419
	c1.261,2.241,1.966,5.23,2.513,7.713c1.029,4.674,4.111,9.911,9.134,9.254c-1.647-4.183-1.384-10.095-5.44-12.544
	c-4.328-2.614-7.709-8.75-5.154-13.135c0.249-0.428,0.229-4.832,0.764-4.832c1.717,0,2.652,2.243,4.296,2.907
	c2.446,0.987,2.319,3.898,4.495,4.991c0.986,0.495,3.124,4.767,2.728,4.767c1.43,0,1.846-2.179,1.912-3.212
	c0,0.855,5.183-3.538,6.886-4.017c0-7.002,0.521-8.625-3.928-14.436c-2.086-2.724-5.456-5.613-2.194-8.859
	c1.317-1.31,3.076-2.165,4.033-3.829c1.288,0.307,2.571,0.635,3.848,0.983c-0.295,0.833-0.163,1.578,0.396,2.235
	c0.24,0,4.579-3.473,6.05-3.782c3.266-0.687,1.555-1.835,4.754-1.835c7.941,0,9.699-10.303,13.997-14.71
	c4.228-4.336,1.595-11.356-0.877-15.889c-3.596-6.597,0.53-5.327,5.031-10.354c-0.601-0.923-4.978-2.171-5.342-0.887
	c-0.984,3.468-4.127-1.522-5.133-2.139c-2.239-1.372,5.329-4.932,6.159-6.428c2.934-4.906,1.281,4.123,1.281,4.192
	c2.534,0,8.138-5.296,9.049-0.78c0.48,2.376-2.215,4.003,1.184,4.003c2.612,0,1.284,7.698,1.284,10.075
	c5.388-1.212,9.24-4.499,5.471-10.725c-2.825-4.665-3.696-3.885,0.738-7.579c1.852-1.542,2.588-7.168,5.576-6.45
	c9.107,2.189,11.242-5.881,15.648-12.215c3.444-4.951,9.427-17.364,5.588-23.18c-3.096-4.691-3.896,0.091-7.716-1.112
	c-2.345-0.738-3.975-3.623-2.525-5.777c4.542-6.747,11.806-13.627,19.944-14.663c7.346-0.934,13.163,0.955,20.254,0.955
	c0.969,0,2.868-6.241,4.358-7.533c2.525-2.188,7.163-2.358,10.339-1.834c-1.792,1.522-0.744,4.733,1.86,2.596
	c1.705-1.399,4.137-7.044,6.409-5.18c2.887,2.37-2.973,6.147-4.779,6.699c-3.416,1.043-4.2,3.549-6.023,6.358
	c-2.013,3.102-6.031,4.424-7.405,7.937c-1.54,3.937-0.561,15.726,2.734,18.616c2.843-4.76,5.02-8.322,8.647-12.174
	c4.082-4.334,2.816-11.174,6.288-16.125c2.583-3.683,5.782-4.647,9.675-2.515c5.049,2.765,9.87-2.617,13.468-5.661
	c1.939-1.641,13.191-4.732,13.092-5.725c-0.36-3.614-7.409-5.315-0.36-8.287c2.726-1.15,1.828-1.951,2.655-4.213
	c1.104-3.019,7.926,3.237,8.762,3.988c6.49,5.826,6.397-1.595,12.563-3.885C831.735,86.397,823.617,85.384,818.506,82.093
	C812.186,77.985,823.07,85.031,818.506,82.093z M809.951,70.045c1.001,0,7.193-0.134,7.193-1.607
	C817.144,61.796,806.611,70.045,809.951,70.045z M787.31,75.577c1.75,0-0.428-2.3-2.401-1.959
	C785.323,74.756,786.123,75.409,787.31,75.577z M711.16,47.299c1.694,0,0.45-1.774,0-2.052
	C710.265,46.061,710.265,46.745,711.16,47.299z M658.531,51.76c-2.109,0-2.243,2.413,0,2.413
	C661.218,54.173,660.596,51.76,658.531,51.76z M660.369,53.541C659.477,54.127,659.65,54.225,660.369,53.541
	C660.314,53.576,660.369,53.541,660.369,53.541z M628.534,33.202c0,2.234,7.906-0.294,9.717-0.382
	c6.79-0.329,2.855-6.424-1.725-4.969C639.05,25.098,628.534,28.388,628.534,33.202z M609.178,22.497
	c0,2.905,5.105,2.951,5.351,0.448C614.067,22.799,609.178,20.172,609.178,22.497z M620.129,22.226
	c-2.112,0.739-3.899,2.077-5.995,2.854c3.798,2.263,5.361,3.32,9.952,4.404c1.218,0.288,7.575-0.697,3.646-1.998
	c6.034-2.212-2.893-6.689-6.079-5.609c2.124-1.199,0.839-2.765,2.486-3.483c-7.174-5.964-6.318-0.401-13.207,1.782
	C613.861,21.812,616.832,22.226,620.129,22.226C617.573,23.12,619.331,22.226,620.129,22.226z M619.973,40.339
	c1.047-0.088,1.581-0.682,1.602-1.783c-1.35-0.071-1.059,0.143-2.405,0.892C619.437,39.745,619.705,40.042,619.973,40.339z
	 M610.375,16.069c-0.824-0.436-1.611-1.157-3.202-0.707C608.06,16.315,609.127,16.551,610.375,16.069z M646.532,33.911
	c0.641-0.201,0.987-0.646,1.036-1.333c-0.875,0.143-1.756,0.231-2.643,0.264C645.229,33.518,645.765,33.874,646.532,33.911z
	 M516.543,20.266C515.677,21.021,515.886,20.936,516.543,20.266C516.346,20.437,516.543,20.266,516.543,20.266z M508.149,18.481
	c5.761,0-2.619,1.785,2.072,1.785c-3,0.817-1.073,1.789,0.562,1.789c-0.484-0.018-0.217,0.279,0.801,0.89
	c0.026,0.003,7.302-3.882,7.361-4.464c-2.939-1.083-4.65,0.836-7.502-0.312c-1.857-0.748-7.468-1.246-8.656,1.116
	C505.004,19.605,506.113,18.481,508.149,18.481z M546.145,18.038c3.058,0,4.478-0.55,3.407-3.274
	C548.355,11.719,542.313,18.038,546.145,18.038z M541.741,20.266c0.104-0.105,1.707-1.73,1.604-2.853
	c-0.854,0.134-1.707,0.134-2.559,0c2.45,0-0.974-0.715-1.159-0.715c-0.562,0-2.28,2.489-2.28,3.568
	C537.347,20.811,541.309,20.51,541.741,20.266z M533.342,20.092c-0.927,0-3.995,0.359-3.995,1.784c0,1.423,5.509-0.717,6.236-0.717
	C534.836,20.804,534.089,20.448,533.342,20.092z M532.942,18.305c0.844,0.159,1.643,0.04,2.399-0.357
	c-1.439-0.719-2.959-1.165-4.561-1.338c-0.089,0.099,6.08-4.555,4.163-4.555c-1.266,0-5.793,3.605-6.154,4.471
	c0.489-0.385,0.94-0.328,1.354,0.172c-1.691-0.427-3.219-0.128-4.394,0.987C529.172,19.543,529.624,18.305,532.942,18.305z
	 M428.558,28.118c2.219,0,1.728,4.901,4.796,4.901c2.939,0,2.442-3.111,6.318-1.603c-0.612,0.561-6.318,2.586-6.318,3.121
	c0,2.62,5.171,0.515,6.637,1.607c-2.002,0.549-3.585,0.309-5.594,0.629c0,3.189,4.213,4.109,6.236,5.617
	c0.665-0.734,3.297-4.884,3.529-5.617c0.638-1.854,1.083-4.251,2.669-5.599c2.136-1.814,1.724,0.418,3.643,0.692
	c-0.399,0-0.555,3.539-0.718,5.17c2.784,0.249,3.031-0.78,3.595,1.787c1.899-0.681,3.149-2.329,5.044-3.033
	c-1.491-2.401-5.388-4.091-7.038-4.553c1.557,0-3.974-3.835-5.602-3.835c-2.132,0-0.011-2.875-3.193-1.072
	c0-4.689-5.825-4.866-3.607,1.699c-1.799-0.729-1.41-3.929-3.605-3.929c-1.194,0-1.724,1.611-1.048,2.45
	c-2.173-0.418-2.488-1.205-0.947-2.358C429.29,23.411,424.663,28.118,428.558,28.118z M447.196,24.279
	c1.253,0,2.504,0.271,3.758,0.271c-1.312,0.589-2.31,0.325-3.603,0.53c0.312,2.576,4.085,1.099,5.598,1.433
	c2.34,4.444,8.79-1.275,11.043-2.946c-1.958-4.395-5.758-1.512-8.636-1.512c-0.087-0.743-0.087-1.488,0-2.233
	c-3.776,2.751-4.215-0.227-8.4,0.266c0.132,0.299,0.263,0.598,0.395,0.897c-1.433-0.231-2.411,0.474-4.159,0.174
	C443.465,24.328,445.051,24.279,447.196,24.279z M429.274,33.02c-0.541-1.904-1.609-2.303-2.624-3.71
	C425.456,30.146,427.748,32.598,429.274,33.02z M426.798,29.185C426.687,29.24,426.631,29.724,426.798,29.185
	C426.735,29.216,426.798,29.185,426.798,29.185z M426.556,29.185C426.606,29.259,426.762,29.439,426.556,29.185
	C426.588,29.232,426.556,29.185,426.556,29.185z M382.081,147.214c3.009,0,6.56-2.67,6.56-5.263c0.9-1.791,2.347-8.027-1.28-8.027
	c-1.038-0.277-3.762,0.339-3.762,1.695c0,2.391-0.367,1.139-2.367,2.196c-1.441,0.762,1.768,2.767,0.426,4.434
	C380.7,143.436,378.697,147.214,382.081,147.214z M387.276,124.642c1.021-0.279,1.53-0.96,1.526-2.044
	C387.732,122.598,385.973,124.642,387.276,124.642z M389.839,127.234c-0.059,2.15,0.856,3.831,0.962,5.445
	c-0.288-0.432-0.288-0.881,0-1.347c3.608,2.682-2.106,4.373,4.401,4.373c-0.785,1.738,4.313,5.259-2.24,5.259
	c0.235,0.861,0.45,1.728,0.643,2.6c-0.749,0.918-1.496,1.838-2.24,2.76c0,0.251,4.164,1.351,4.879,0.176
	c0,1.653-4.47,3.056-5.364,5.622c1.054-0.181,1.683-0.68,2.805-0.71c0-2.309,3.561-1.033,4.948-1.384
	c1.213-0.308,10.957-1.034,5.764-2.722c2.222-4.016,2.429-5.649-0.715-4.64c0.708-4.139-4.503-10.03-7.925-11.153
	c0.518-2.05,3.113-3.713,2.805-6.158c-1.573,0-3.147,0-4.72,0c-0.46-0.782,3.911-5.647-1.355-3.828
	c-1.732,0-2.398,4.806-2.646,4.806c0.951,0-2.197-0.969-1.837-0.792C388.1,126.63,388.712,127.194,389.839,127.234z
	 M392.562,137.311c-0.187,0.358-0.375,0.715-0.562,1.073c0.294,0,0.588,0,0.882,0C393.303,137.537,393.196,137.179,392.562,137.311z
	 M350.439,96.451c-0.414-0.892-3.716-4.377-2.323-5.441c-2.746,0-2.279-0.09-4.24-0.713c-0.78,1.735-8.064,3.144-9.679,1.338
	c-1.358,2.052-2.658,1.755-3.116-1.427c-0.626-0.062-3.282,1.372-3.679,1.518c0.201,1.268,3.643,2.103,4.395,2.676
	c-1.347,0.472-2.735,0.74-4.162,0.803c1.115,0.412,2.263,0.531,3.445,0.357c-0.217,1.31-0.066,2.34-1.122,3.118
	c3.489,0,6.784,3.219,10.714,3.219C343.764,101.899,349.003,99.27,350.439,96.451z M212.452,240.171
	c-5.412-2.542-18.449-14.117-23.758-4.099c6.595-3.275,10.74-0.009,16.883,3.215c-0.662,0.283-0.929,0.729-0.802,1.34
	C206.598,240.627,211.199,242.564,212.452,240.171C211.89,239.907,211.89,241.244,212.452,240.171z M192.696,235.544
	c-0.109,0.808-0.722,0.603-0.722,1.418c0.372,0.087,0.745,0.087,1.118,0C194.677,232.663,192.589,236.336,192.696,235.544z
	 M203.892,245.083c0,2.537,5.781,0.933,3.201,0C207.504,245.362,203.892,243.692,203.892,245.083z M229.977,244.357
	c-2.377,0,1.411,3.168,2.395,0.992C231.665,244.791,230.867,244.46,229.977,244.357z M212.614,244.543
	c0.051,0.661,0.37,1.138,0.958,1.43c0-2.614,5.101,0.712,5.597,0.712c1.924,0,4.136-2.016,7.042-1.87
	c-0.517-0.82-11.201-6.243-11.201-3.565c0-0.179,2.167,3.499,1.598,2.854C215.76,244.578,213.244,244.543,212.614,244.543
	C212.614,245.083,212.774,244.543,212.614,244.543z M241.489,266.76c0,0.366,1.704-0.829,1.678-1.786
	C242.071,264.905,241.489,265.568,241.489,266.76z M267.967,291.919c-3.563,0,0.303,7.612,3.119,3.51
	C272.637,293.171,270.19,291.919,267.967,291.919z M213.973,411.821c0.143-0.153,2.205-5.089,0.079-5.089
	C213.145,406.732,212.384,411.532,213.973,411.821z M300.999,305.203c-5.423-1.704-13.882-9.515-20.159-5.89
	c0-2.926-0.9-2.848-3.206-4.144c-6.024-3.386-4.045,2.904-7.749,2.904c-6.322,0-3.437-6.245-1.201-9.372
	c0-3.389-4.881-9.005-7.675-10.162c-5.13,0-9.781-2.142-12.92-5.763c-1.959-2.259-10.453-5.624-7.882-7.803
	c-0.516-0.169-3.998-0.64-4.238,0.174c-1.236,2.76-3.447,0.271-4.754,0.271c-4.668,0-5.234-2.669-9.324-3.832
	c0.416,0.643,0.921,1.207,1.516,1.691c-5.628-0.732-2.19,5.913-3.716,5.913c-3.326,0,0.2-6.842,0.2-7.421
	c0-1.758-7.062,1.968-8.239,2.405c-2.24,0.764-4.381,5.917-6.19,7.379c3.306-3.931-10.221-2.51-10.312-2.664
	c-2.588-4.426-4.192-4.522-3.896-10.162c3.569-6.666-3.804-7.187-8.36-6.742c-5.733,0.56-1.432-3.475-2.039-7.346
	c0.634-0.213,0.846-0.005,0.638,0.624c1.284-2.375,1.935-5.661,2.324-8.302c-2.671,0-8.239-1.564-8.239,3.028
	c0,3.415-2.116,4.456-4.323,4.456c-3.926,0-5.552,2.363-8.187-2.092c-1.22-2.064-4.518-5.313-3.888-8.07
	c-0.523-3.448-0.43-12.984,1.53-15.635c0.749-1.013,6.983-4.973,8.069-4.973c2.384,0,7.184,3.088,9.2,1.969
	c-0.601-0.899-0.655-1.851-0.163-2.856c-0.353,0.274-0.726,0.274-1.117,0c2.163-0.844,4.867-0.718,6.877-0.718
	c1.151,0.176,2.127,0.685,2.927,1.525c2.053,1.51,1.424-0.634,3.072-0.634c1.431,0,7.468,17.035,9.226,12.751
	c2.752-6.705-6.58-12.716-0.647-19.322c2.968-3.305,8.055-4.246,10.436-7.792c-1.176-2.116,0.355-0.765-0.797-3.007
	c2.023,0-0.337-6.1,0.171-7.609c0.01,0.05,1.01,4.466,1.206,4.466c2.171,0,1.332-4.419,1.12-5.361
	c1.381,0.138,2.664-1.191,3.201-3.561c-0.347-0.283-0.586-0.643-0.718-1.08c0-0.9,4.788-1.185,4.24-0.969
	c-0.61-0.489-2.049-0.044-2.806,0c2.376-1.724,6.655-1.525,8.563-2.852c-3.632,0.541-1.278-4.874,0.833-6.557
	c1.967-1.568,5.753-0.549,5.167-3.716c2.744,1.577,4.04-1.818,5.919-1.95c-0.255,1.051,0.146,1.496,1.201,1.335
	c-5.908,0.555-3.932,6.866-2.23,5.159c1.071-1.074,8.71-4.444,8.71-5.433c0-0.896-5.683-2.029-6.434-2.591
	c-3.013-2.254-0.211-5.613-3.33-5.613c0.698-1.026,6.437-4.23,1.024-4.309c-3.923-0.058-5.854,2.63-9.339,3.146
	c1.009-2.334,6.739-6.637,9.185-6.832c3.374-0.268,9.321,1.841,12.272-0.299c2.297-1.665,6.783-3.14,8.533-5.188
	c1.587-1.858-0.955-5.859-1.52-7.932c-0.958,0.604-7.565,4.097-8.396,2.324c2.622-1.611,6.429-1.13,5.841-4.372
	c-3.65,0.499-7.348-4.019-9.839-6.158c3.036-1.968-3.36-11.297-5.45-13.2c-1.228-1.118-9.542,13.377-11.66-0.019
	c-0.557-3.526-4.891-2.909-4.891-5.785c-2.232-0.349-2.606-3.383-4.959-3.383c-2.079,0-1.738,1.402-4.328,0.494
	c-11.886-4.167-0.643,9.907-7.492,12.893c2.824,5.351,8.482,14.191-1.777,16.495c8.938,5.056-5.523,19.438-5.798,1.368
	c-0.084-5.528-5.83-3.494-9.292-5.682c-2.379-1.503-4.974-2.609-7.55-3.718c-3.603-1.503-3.288-0.443-6.559-0.443
	c0-4.265-1.122-7.124-5.034-6.243c0.597-2.008-0.159-4.359,0.178-6.45c0.45-2.787,2.232-4.353,3.445-6.742
	c2.755-5.423,8.057-2.706,1.393-6.989c0.066,0.025,0.283-0.493,0.824-0.434c1.358,0.241,2.682,0.609,3.973,1.103
	c1.811,0.622,0.495-1.903,1.62-1.903c2.753-0.954,3.552-1.248,5.997-3.299c0.329-2.995-5.227-1.143-6.636-4.285
	c1.84,0.297,3.167,2.049,5.041,2.049c2.499,0,4.312-4.902,3.035-4.902c2.045,0,2.525,2.367,4.572,1.429
	c-0.266,0.122,2.428-1.571,1.776-1.549c1.895-0.064,1.708,1.121,3.932-1.212c2.642-2.771-0.023-2.57-0.542-5.322
	c-0.578-3.064,4.047-2.808,0.194-5.11c-1.711-1.022-5.036-3.755-7.128-2.023c-0.84,0.864-0.853,1.742-0.04,2.635
	c1.67,1.98-1.029,1.476-1.645,2.85c-1.031,2.482-2.705,8.11-5.352,2.962c-1.402-2.727,2.32-2.919-0.951-5.857
	c-2.845-2.556-1.931,3.169-4.25,3.169c0-2.207-2.76-3.03-1.041-4.548c-1.418-0.201-2.752-0.648-4.003-1.343
	c3.332-2.167,0.362-4.165-0.768-6.973c-2.105-5.232-5.255-1.013-6.869-0.521c-0.572,0.174-1.094,6.216-0.591,6.631
	c2.259,1.864,6.67,1.017,4.227,5.586c4.532-2.811-2.556,4.255-2.556,5.354c-2.566,0.776-0.543-2.11-1.2-3.118
	c-1.391-2.636-5.597-0.912-5.597,1.792c-5.357-0.748-12.026,1.443-16.135-3.393c-5.358-6.306-9.68,5.79-1.944,0.088
	c-0.059-0.541-6.214,6.241-3.28,6.241c-1.59,0-2.542-2.547-3.88-3.252c-1.381-0.727-3.395-0.317-4.919-0.317
	c-2.407,0-5.049,1.473-7.429,0.574c-3.135-1.184,1.715-1.87,1.991-2.18c-2.937-4.551-6.214-1.26-10.632-3.348
	c-2.615-1.236-4.873-3.163-7.926-3.163c-2.292,0-4.509,2.638-5.36-1.249c-1.718,0.406-2.263,3.545-4.345,1.695
	c-0.491-0.437-2.248-3.388-2.936-3.388c-1.697,0-0.975,2.577-2.718,2.577c-1.856,0-2.498-1.14-5.141-0.215
	c-1.126,0.394-7.716,2.308-7.545,1.883c0.34-0.841-5.298,2.978-2.833,2.978c-4.401,0-7.525-3.038-10.952-3.839
	c-4.869-2.133-9.465-0.41-14.685-1.744c-2.622-0.67-8.646-0.832-10.577-2.414c-2.754-2.256-6.638-0.143-8.981-0.659
	c2.633-4.808-5.987,0.21-6.68,0.127c-5.841-0.698-8.538,8.529-12.402,8.529c-11.764,0,5.373,8.177,6.524,12.313
	c-2.038,0.576-5.204,0.631-5.204-2.05C5.89,91.123,2.258,93.599,0,95.113c0.594,1.339,1.806,2.166,2.649,3.371
	c1.352,1.932,1.435,1.448,4.123,1.448c2.862,0,8.157-1.743,8.665,0.451c-0.395-0.421-0.795-0.392-1.2,0.086
	c0.888,2.938-0.187,5.714-4.801,5.714c-2.283,0-5.997,2.351-5.997,4.898c0,1.209,5.314,4.112,1.997,4.112
	c0.989,1.4,2.742,2.668,4.165,3.57c2.384,1.512,0.884-0.986,2.797-0.986c1.602,0-0.306,5.354,1.436,5.354
	c1.534,0,1.97-1.133,2.237-2.053c1.116,1.084,2.398,1.918,3.844,2.5c0.238-1.875,4.744-1.34,6.879-2.051
	c-1.931,1.338-1.874,3.978-3.757,5.346c-2.102,1.562-4.858,2.678-6.399,4.906c-1.823,2.546-8.554,3.155-10.241,6.159
	c2.375,0.754,10.261-3.491,12.56-4.679c3.3-1.705,5.77-6.123,8.88-7.453c5.636-2.473,3.623-12.419,11.758-12.761
	c0,1.614-4.162,4.345-4.162,6.96c0,0.375,9.641-1.263,8.003-5.619c3.532-2.227,9.301,3.122,14.512,3.122
	c3.431,0,11.768,8.072,12.839,4.912c1.091,1.209,4.39,0.952,3.351,2.66c-2.111,3.471,2.432,1.386,3.051,1.35
	c-2.9,4.643,2.638,2.59,2.638,6.02c0,4.892,8.792,3.528,3.405-1.448c2.918,2.681,0.385,5.348,1.33,8.962
	c0.505,1.931,2.824,0.571,2.775,3.006c-0.03,1.489,2.672,3.435,3.186,5.067c1.295,4.107,15.043,6.168,10.584,12.3
	c-0.943-1.888-4.854-2.252-3.004,0.762c2.076,3.381,1.036,5.66,0.278,9.401c-1.168,5.757-0.705,14.544,3.381,18.906
	c1.518,1.62,3.301,6.09,4.222,8.661c1.156,3.368,4.827,3.413,7.424,5.902c1.162,1.114,7.046,17.277,8.476,16.403
	c-0.521,0.144-1.048,0.174-1.581,0.09c1.568,2.602,5.999,2.429,5.999,6.333c0,1.319,4.031,6.606,5.199,6.606
	c0.822,0-13.204-22.667-11.679-24.89c1.111,0.835,2.339,1.429,3.683,1.783c0.437,1.027,0.837,2.068,1.2,3.123
	c1.513,1.669,2.228,4.366,3.92,6.239c0.99-1.095,5.044,7.01,5.997,7.583c8.592,5.167,4.222,16.912,13.96,19.096
	c3.281,0.736,7.11,5.255,10.599,5.255c1.887,0,3.344,1.82,4.926,0.095c1.582-1.726,4.287-0.156,5.487,1.218
	c2.529,2.896,4.373,2.752,7.503,4.401c1.386,0.707,4.699,0.63,5.361,1.07c0.598,2.67,3.512,3.503,4.156,5.896
	c0.446,1.486,0.303,4.819,1.604,2.673c1.359,0,10.38,10.438,11.198,5.971c-1.472-0.782,4.641-4.696,4.641,0.541
	c0,3.999,3.861,9.391-0.266,11.984c-3.021,1.898-3.58,6.283-5.251,8.66c-2.091,2.974-0.377,3.829,1.511,5.217
	c-0.517,2.363-3.357,3.041-3.357,5.815c0,2.899,2.38,3.276,3.203,5.076c1.709,4.517,5.09,8.824,6.557,13.745
	c1.767,6.833,4.922,6.835,9.195,11.599c2.235,2.469,5.059,1.722,6.408,5.699c0.533,2.237,0.633,4.847,0.633,7.142
	c0,9.918-3.604,19.324-3.48,29.216c0.038,2.985-7.054,29.22-4.038,29.22c0.777,0,0.959-0.986,1.917-0.986
	c-0.086,4.837-1.691,9.813-2.637,14.553c-0.839,0-2.881-3.043-2.881-0.184c0,1.281,1.123,2.321,1.123,3.565
	c0,2.351-2.186,2.812-1.533,5.607c0.321,1.377,0.228,6.044,1.448,7.207c3.128,2.983,0.165,3.62,0.165,5.829
	c0,2.556,9.887,6.381,11.301,8.734c1.14,1.897,9.661-0.634,10.294-1.677c-9.211-4.946-11.463-13.356-4.878-20.706
	c1.129-1.253,4.876-3.2,2.554-5.461c-1.586-1.544-4.667-2.622-2.315-5.546c2.111-2.623,3.446-0.378,4.23-4.331
	c0.5-2.521,0.651-2.786,0.651-4.735c0.81,0,4.551,1.402,2.161-1.245c-1.901,0.592-2.803-0.48-2.803-2.946
	c0-2.416,3.444,0.178,4.403,0.178c3.412,0,1.176-5.432,2.634-7.041c2.441-2.759,8.695,0.411,11.688-4.773
	c1.992-3.557-3.526-5.869-3.526-8.609c0,0.454,9.285,1.965,10.827-0.145c2.129-2.912,6.72-8.576,7.682-11.856
	c1.084-3.699,3.731-5.011,3.731-9.2c0-6.877,4.854-5.891,8.556-10.027c1.419-1.562,2.613-1.516,4.721-1.516
	c3.219,0,2.834-2.498,3.92-4.283c2.553-3.807,4.064-8.406,4.909-12.846c0.468-2.46-0.254-4.46-0.246-6.889
	c0.007-2.266,3.211-4.15,4.323-6C299.266,318.656,307.866,307.571,300.999,305.203C299.882,304.852,302.599,305.755,300.999,305.203
	z M203.172,227.237c-0.194,0.807,0.072,1.372,0.8,1.694C205.279,228.931,203.172,226.774,203.172,227.237z M203.09,222.152
	c-0.371,0.24-0.743,0.48-1.114,0.72C204.322,223.286,204.693,223.046,203.09,222.152z M205.973,223.938l-0.4-0.706
	C205.5,223.491,205.729,224.032,205.973,223.938z M215.252,237.41c0.063-0.003-0.782-0.677-1.599,0.535
	C214.23,237.986,214.763,237.808,215.252,237.41z M79.987,136.689c2.009,0-3.357-10.135-3.357-3.743
	C79.413,130.864,77.526,136.689,79.987,136.689z M74.231,127.768c-1.714,0.966-0.802-3.521-0.802-3.75
	c-0.775,0.497-2.796-0.667-2.796,0.898c0,1.005,2.66,5.377,3.438,6.243C74.454,130.048,74.507,128.918,74.231,127.768
	C74.071,127.859,74.071,129.017,74.231,127.768z M148.221,76.472c1.175,0.27,2.243,0.032,3.204-0.715
	c-5.18-4.553-7.249-3.842-9.841-10.863c-0.769-2.083,2.024-6.254,0.338-7.304c-1.474-0.918-5.014-0.536-4.256,1.924
	c-0.92,0.515-3.683-0.735-3.683,1.17c0,1.884,0.943,4.52,1.842,6.154c-2.152,1.867-2.603-5.608-6.798-5.087
	c0.933,3.151-5.087-0.891-8.082,1.159c-2.292-3.799-4.001-3.6-8.43-0.357c-5.644,4.133-2.046,5.53,2.111,6.694
	c-7.757,5.468,5.472,2.027,9.2,4.372c-3.508,0.306-7.494-0.204-10.398,2.227c2.317,4.426,7.088,1.469,8.833,5.401
	c0.509,1.147,6.901,0.555,7.959,0.401c4.49-3.569,8.051-3.007,12.388-1.134c1.45,0.626,4.07,0.74,5.518-0.02
	c3.188-1.672-0.946-2.059-0.946-3.128C147.525,77.068,147.873,76.77,148.221,76.472z M97.829,67.817
	c4.323,8.067,11.422-6.24,15.68-7.24c5.768-1.355,3.207-5.519-1.685-5.519c-4.561,0-10.375-2.98-15.038-0.886
	c0.293,3.515,1.736,3.987-0.802,7.556C91.899,67.475,95.777,64.688,97.829,67.817C98.067,68.261,97.186,66.837,97.829,67.817z
	 M117.386,44.367c-0.7-0.099-1.3,0.222-1.8,0.964c1.369,0.99-3.09,0.829-0.076,2.073c-1.708-0.357-4.153,1.234-2.526,3.063
	c2.434,2.737,6.057-0.415,7.882-0.765c0.301,0.786,0.754,1.471,1.359,2.057c-2.791,0-2.612,2.413,0,2.413
	c2.526,0,4.792-1.239,7.188-1.865c2.4-0.627,8.284-0.158,9.574-1.749c5.977-7.371-5.406-2.53-5.406-7.72
	c0-3.432-4.396-0.959-4.396,1.073c0,2.619,2.418,0.161,1.2,2.853c5.123,2.779-7.158-1.96-7.762-1.96
	C121.736,44.417,115.499,43.384,117.386,44.367C117.315,44.361,117.034,44.184,117.386,44.367z M108.628,47.746
	c0,2.844,3.594-0.772,3.757-2.056C111.311,45.576,108.628,46.276,108.628,47.746z M119.824,42.392c0.587,0,1.174,0,1.761,0
	c0-0.387,0-0.774,0-1.16c-0.891-0.124-1.899-0.049-2.798,0C118.83,41.92,119.176,42.307,119.824,42.392z M102.784,45.691
	c2.734,0,7.402,2.132,8.005-3.389c2.272,1.403,0.901,3.414,3.715,1.073c1.402-1.166,2.119-2.954,2.119-4.644
	C116.622,34.885,94.82,45.691,102.784,45.691z M125.582,33.913c1.943,0.325,3.915,0.044,5.597-0.888
	c-0.97-3.55-9.192-2.006-9.192,0.888C123.548,33.692,124.013,33.913,125.582,33.913z M128.782,34.362
	c-13.691,0,0.705,7.469,0.244,1.96c-0.747,0-1.495,0-2.243,0c1.274,0.054,2.42-0.303,3.437-1.07
	C129.925,34.685,129.445,34.388,128.782,34.362z M119.983,37.212c0.374-0.355,0.749-0.711,1.123-1.066
	c-0.623-0.558-1.331-0.974-2.123-1.249C117.584,34.857,118.974,37.212,119.983,37.212z M159.74,62.912
	c0-2.261-0.468-1.749-2.724-1.427c6.569-9.335-6.798-1.571-6.798-2.409c0,0.685,4.792,1.823,2.562,3.567
	c-1.078,0.843-3.706-1.067-4.799-1.067c0.195,1.786,8.427,8.79,9.596,7.188C158.605,67.354,165.485,64.506,159.74,62.912
	C159.74,62.019,160.058,63,159.74,62.912z M143.979,42.565c-2.786,1.211,0.948,2.453,1.321,3.838
	c0.836,3.105,7.141-0.525,9.079,0.896c-4.774,5.346,2.716,4.225,3.224,1.007c0.221-1.401,1.869-5.741-0.982-5.741
	c-1.349,0-5.478-0.652-6.642-0.086c0.663,2.574,2.994-0.071,2.801,3.212c-1.845,0-2.602-1.959-4.397-1.959
	c1.154,1.785-2.333-0.165,1.596,2.587C147.221,47.21,146.526,42.565,143.979,42.565z M156.379,79.151
	c-0.674-0.185-1.26-0.038-1.757,0.439c0,2.762,7.596,2.159,8.957,1.25c-0.597-1.563-2.415-3.115-3.746-4.021
	C157.108,74.963,157.983,78.54,156.379,79.151C156.06,79.238,157.339,78.785,156.379,79.151z M167.177,55.33
	c-0.194,0-4.173,2.651-3.994,2.221c-0.937,2.244,1.2,6.119,1.2,8.48c1.905,0.182,3.137-0.938,3.438-2.94c-0.347,0-0.695,0-1.042,0
	c0.49-1.823,2.655-0.191,4.259-1.193c1.721-1.075,3.643-3.683,3.981-5.501C172.344,56.398,169.847,55.33,167.177,55.33z
	 M141.984,39.891c0.372-0.355,0.743-0.711,1.115-1.066c-1.613-0.606-1.969-2.503-3.918-2.503
	C139.18,37.404,140.733,39.891,141.984,39.891z M141.581,50.775c2.078-0.268,3.216,0.383,2.238-2.41
	C142.599,48.715,141.853,49.518,141.581,50.775C142.22,50.693,141.896,49.262,141.581,50.775z M141.581,29.452
	c-0.408,1.801,0.123,0.894,2.238,0.894c-0.788,1.338-1.206,0.805-2.396,2.147c1.149,1.281,6.851,1.421,8.554,1.421
	c2.075,0,7.919,4.371,2.801-1.336c1.803-3.04-10.152-4.895-12.555-4.459C140.129,29.11,140.582,29.554,141.581,29.452
	C141.5,29.811,140.46,29.452,141.581,29.452z M150.061,35.697c-0.973-0.358-2.489-1.363-3.085,0.278
	C146.764,36.559,149.658,36.324,150.061,35.697C149.342,35.432,149.66,36.322,150.061,35.697z M178.217,52.205
	c2.713,2.122,7.563,1.337,11.357,1.335c2.376-1.766,2.67,0.336,5.785,0.129c4.943-0.329,2.892-3.246,4.456-4.145
	c-1.898-3.906-8.213-2.589-11.311-1.38c-1.982,0.774-13.122,1.219-11.328-0.85c-1.313-1.144-3.121,0.352-3.6-2.048
	c1.037,0.065,2.19-0.214,3.201,0c-1.685-2.711-4.662-1.967-6.803-1.967c-2.001,0-3.096-1.846-4.735-2.633
	c-0.71-0.341-6.611-0.491-4.106,1.483c1.243,0.979,2.83,1.704,4.308,2.243c0.931,0.478,1.776,0.264,2.535-0.641
	c1.06,1.521,2.127,3.036,3.202,4.546C168.059,50.022,175.328,56.226,178.217,52.205z M167.978,50.416
	c0-4.459-6.799-2.633-6.799,0.454C163.45,52.124,167.978,55.3,167.978,50.416z M168.219,37.482
	c-0.523-1.808-4.589-1.925-6.237-0.088C162.677,37.549,168.219,39.329,168.219,37.482z M159.819,34.363
	c-0.267,0.296-0.534,0.592-0.802,0.889c0,2.419,10.768-1.544,3.529-3.213c-0.101-0.023-3.421-2.09-3.529-2.409
	C155.161,30.082,158.76,33.177,159.819,34.363C159.581,34.454,158.861,33.29,159.819,34.363z M155.819,25.444
	c2.25-1.06,1.503-2.051-1.444-1.783C154.583,24.48,155.065,25.075,155.819,25.444z M165.974,23.664c-1.29,0-2.288-0.815-3.592-0.893
	c0.242,2.676,2.475,2.845,4.634,2.845c-0.485,0.587-1.098,0.975-1.839,1.163c0,1.306,7.742,0.93,9.119,1.34
	c-1.388,0.324-2.858,0.187-4.26,0.498c-3.612,0.801-0.47,3.517,1.784,3.517c-2.257,2.532,4.076,3.415,4.076,0.177
	c0.828,0.777,1.788,1.311,2.881,1.601c0.857-1.308,0.215-0.213,1.437-1.159c-0.572-1.723-1.711-1.284-0.077-3.118
	c0.941,3.848,3.719-0.89,6.079-1.126c4.292-0.43-4.403-3.956-4.403-2.892c0-2.025,0.346-3.697-2.234-4.194
	c0.109,0.603,0.32,1.098,0.398,1.787c-0.69-0.733-2.362-2.877-4-2.586c-2.24,0.398-2.334-1.15-3.069-2.732
	c-0.969-2.084-4.281-2.012-6.13-2.172c0.454,1.052,1.254,1.674,2.398,1.868c-1.53-0.286-3.112-0.034-4.398,0.807
	c0,2.102,2.347,0.803,3.281,1.425c-0.965,1.1-4.877-0.481-4.877,1.166C163.183,21.652,168.164,23.664,165.974,23.664z
	 M195.174,100.382c-2.541-2.296-7.358-4.295-8.159-6.96c-1.211,0.142-4.561,8.198-4.638,9.635c1.143-0.23,2.289-0.23,3.439,0
	c-0.45,0.856-0.264,1.45,0.556,1.782c1.438,0,4.406-2.187,4.406-4.022c3.12,1.194,3.989,3.94,7.837,1.263
	C197.526,101.398,196.379,100.832,195.174,100.382C194.773,100.02,196.454,101.454,195.174,100.382z M210.372,85.663
	c0-2.144-3.048-3.381-4.44-1.654C202.977,87.675,210.372,88.898,210.372,85.663z M192.376,105.467
	c-0.21,1.378-1.721,1.797-1.763,3.383c1.533-0.211,3.182-1.815,4.003-3.028C193.932,105.383,193.185,105.265,192.376,105.467
	C192.296,105.993,193.975,105.374,192.376,105.467z M201.017,62.466c1.557,0,6.334-0.124,6.795-1.699
	c-3.063-1.713-5.703-3.476-9.434-3.476C195.301,57.29,199.185,62.466,201.017,62.466z M199.172,110.636
	c0.754-0.444,1.236-1.098,1.446-1.963C198.482,105.834,197.132,110.636,199.172,110.636z M213.814,85.031
	c-0.332-0.477-2.642-2.476-2.642-0.529C211.172,85.65,213.38,85.146,213.814,85.031C213.572,84.684,212.775,85.306,213.814,85.031z
	 M202.612,78.432c-0.957,0-2.797,2.051-1.843,2.051C201.735,80.482,202.375,79.499,202.612,78.432z M219.809,70.228
	c0.433-2.773-3.64-1.199-4.637-1.79c-3.12,0-3.711-4.351-6.639-5.16c-4.653-1.285-7.016,1.594-10.96,1.594
	c-0.082,0,0.034-6.866-3.195-6.866c-2.644,0-10.484,1.264-8.165,5.664c1.119,2.123-1.997,4.317-1.997,1.475
	c-1.518-3.741,1.519-4.15,2.798-7.139c-2.489,0-2.146-1.568-5.149-0.433c-3.459,1.307-2.587,3.787-4.451,5.339
	c-5.837,4.759,1.935,5.781,4.002,7.316c0,0.386,0,0.771,0,1.157c-1.18-0.392-2.38-0.48-3.6-0.267
	c0.737,5.801,16.302,4.043,20.157,4.464c-0.381,0.89-0.168,1.573,0.638,2.05c2.104,0,2.404-4.487,4.647-2.958
	c1.81,1.234,3.576,2.841,5.033,4.478c-5.203,0.935,3.746,2.182,5.308,3.633c5.804,5.39-3.916,8.986-0.189,11.436
	c-1.853,1.389-10.237,0.433-10.237,3.663c0,3.458,5.812,1.782,7.198,1.782c3.098,0-0.765-3.454,3.663,0.213
	c1.261,1.158,2.653,2.13,4.176,2.914c-0.474,1.018-0.225,1.78,0.747,2.286c2.08,1.162,9.543,4.847,11.251,4.847
	c3.451,0-4.859-7.068-5.039-7.316c2.484,0.674,4.747,2.378,7.398,3.247c4.162,1.365,0.909-5.484,1.001-7.079
	c-2.649-0.29-8.271-4.658-5.202-5.803c0-0.358,0-0.716,0-1.074c-0.563,0.251-1.094,0.193-1.594-0.175
	c4.891,0,3.559,2.149,7.879,4.637c1.991,1.147,4.67-2.39,4.516-4.283c5.503,0-0.443-5.499-2.634-4.718
	c-1.867,0.666-7.221-5.383-9.366-6.697c0.621-1.014,1.501-1.698,2.638-2.052c-0.49-1.123-2.715-0.865-3.598-0.98
	c0.741-0.844,1.675-1.259,2.803-1.246C228.081,73.969,222.337,71.16,219.809,70.228C220.047,68.706,221.969,71.025,219.809,70.228z
	 M202.773,103.858c0.8,0.712,1.04,0.712,1.844,0C203.653,103.324,203.573,102.697,202.773,103.858z M191.014,94.398
	c-0.558-0.799-0.558-1.956-1.597-1.424C189.332,93.6,189.973,94.308,191.014,94.398z M174.776,13.838c0.8,0,1.599,0,2.399,0
	c-0.892,0.288-1.637,0.794-2.236,1.519c2.388,1.459,3.601-1.383,6.239-0.706c-1.884,0.64-4.111,0.522-4.963,2.761
	c1.254-0.046,2.508-0.046,3.762,0c-4.917,0.44,6.351,3.745,8.241,3.745c3.785,0,7.771-1.463,11.595-2.227
	c-3.517,4.895-11.208-0.171-5.437,6.149c-3.481,0.421-5.845-5.284-10.401-3.203c0.06,0.729,0.459,1.085,1.199,1.07
	c-0.885-0.283-1.55-0.044-1.995,0.715c0,1.263,8.739,3.452,4.741,6.033c-2.469,1.593-6.302,0.44-6.105,4.844
	c3.255-1.751,4.627,1.422,6.801,3.836c-2.079-0.045-13.138-5.068-5.757,1.074c0.431-0.342-9.477,4.284-5.042,4.284
	c1.791,0,7.751,1.795,9.938,0.445c1.695-1.047,5.131-0.661,7.02-0.445c2.645,0,3.008,1.867,6.527,0.346
	c3.424-1.48,2.519-3.449-0.685-2.846c0-3.245,3.83-1.584,2.792-5.534c3.874,1.023,10.013-3.604,5.284-6.242
	c1.568,0.565,2.342,0.031,2.32-1.604c-0.748,0-1.497,0-2.245,0c1.706-1.549,4.965-2.23,7.185-1.932
	c2.602,0.349,3.97-2.321,5.437-3.943c3.62-4.002,9.717-3.519,13.221-7.419c-1.35-0.062-4.91,0.946-6.001-0.275
	c2.682-1.459,19.841-3.726,9.376-6.379c-1.651-0.419-2.498-3.287-4.491-2.649c-1.975,0.633-3.95,1.266-5.925,1.899
	c4.123-1.138-8.167-2.501-10.079-2.501c-1.57,0-9.72-0.352-10.081,0.451c-5.583,0.159-14.531-0.951-16.631,5.349
	c-1.72-0.639-3.453-1.958-5.364-1.958c-1.229,0-2.612,2.676-3.839,2.676c-2.51,0.928-8.904-0.699-9.755,3.296
	C173.08,14.692,173.646,14.269,174.776,13.838z M330.998,74.328c-1.79-0.663-8.801,0.091-8.801-2.943
	c2.727-0.615,0.963-1.617,0.963-3.392c0.675,0.457,9.599,6.464,9.599,3.392c0-5.788-7.659-6.426-8.002-11.152
	c1.034,0,5.259,6.293,6.401,3.169c1.458-3.988-3.233-2.893-4.159-5.666c3.475,2.324,7.198,1.702,7.198-2.678
	c1.653-0.133,2.853-0.934,3.599-2.403c-2-0.764-5.293-2.953-0.639-2.953c-1.78-2.33,0.76-4.592-2.897-5.981
	c-4.401-1.672,3.972-2.531,4.08-2.537c5.301-0.292-1.983-3.617,0.257-5.133c-2.072-1.83-3.631-0.686-5.595-1.69
	c1.342-2.509,4.797-6.074,4.554-8.918c1.693-0.506,7.196-4.511,7.196-6.247c-0.528,0.538-1.086,0.538-1.674,0
	c1.771,0,11.831-4.236,9.316-6.602c-2.824-2.656-6.378-1.886-9.636-0.986c-3.207,1.784-4.671,1.522-8.272,1.522
	c-4.562,0-5.097,6.32-9.291,7.578c0.711-2.655,5.405-4.995,5.405-7.755c0-6.961-9.215,2.41-11.406,2.41
	c0.049,0,2.899-3.996,3.003-4.469c-4.211-1.816-12.596,3.079-16.205,0c3.646-0.221,24.878,0.712,25.567-4.637
	c-3.383-0.9-5.999-0.193-9.2-2.112c-3.021-1.811-6.068-3.956-9.755-3.956c-3.63-0.429-7.549,0-11.207,0
	c-4.5,0-11.762,3.397-14.634,3.569c-2.58,0.155-15.694-1.891-11.759,2.498c-4.941,1.207-2.311,2.603,1.358,4.637
	c-3.222,0.661-14.525-6.806-12.152,0c-1.76,0.125-4.159-0.523-5.044-2.223c-0.179,1.582-0.398-0.061-0.398,2.676
	c-1.711,0-1.688-2.676-3.362-2.676c-2.188,0-3.968,1.48-5.997,2.047c-5.614,0-6.986,1.211-9.319,5.158
	c-0.786,1.329-3.311,0.06-4.93,1.308c-1.91,1.472-4.119,2.704-6.389,3.524c-5.093,1.117,3.311,2.996,4.403,3.13
	c0,7.274-6.88,3.784-10.914,6.374c-0.86,0.552-8.615,1.844-6.026,4.096c5.294,4.606,9.122,1.622,14.375,2.287
	c-1.042,4.287-10.886,0.193-11.444,4.456c1.899,0.782,3.897,0.643,6.004,1.512c-0.375,0.65-0.907,1.128-1.596,1.433
	c0.92,1.289,7.479,3.466,5.435,1.151c2.004-0.865,3.539,1.117,5.279-0.216c2.022-1.549,6.624-0.457,8.65,0.286
	c6.887,2.525,10.332,9.301,11.826,15.905c2.824,0.357,1.898,2.371,0.7,3.942c-3.323,4.353,3.514,1.413,3.7,1.413
	c1.595,0,6.088,4.823,5.709,5.958c-0.555,1.664-5.344-1.562-6.913-0.878c0.382,2.956,6.588,3.1,8.641,3.836
	c-0.613,2.137-1.999,3.848-2.394,6.07c-3.542-1.68-6.539,5.57-3.845,7.321c-0.996,3.709,0.89,3.962,1.843,7.313
	c1.151,4.347,2.173,0.972,3.757,3.207c-3.501,3.918,3.348,10.017,5.991,12.685c2.014,2.033,4.273-1.443,5.928,2.171
	c0.799,1.745,3.066,2.278,4.484,2.278c1.967,0,2.945-6.578,2.973-7.842c0.091-4.054,3.818-4.34,3.818-7.323
	c0-1.682-1.615-3.599-0.094-5.387c0.706-0.83,6.187-4.456,7.138-4.878c-0.24,3.427,3.076,1.088,5.303,0.297
	c3.283-1.165,4.408-6.014,7.194-8.081c1.992-1.478,7.923-1.713,10.358-2.185C322.589,80.357,328.294,76.74,330.998,74.328
	C329.318,73.706,329.802,75.395,330.998,74.328z M258.208,78.257c1.453,0.301,4.745,0.218,4.957-1.784
	c-1.848-0.635-2.68-3.126-4.799-3.126C255.791,73.346,256.335,78.016,258.208,78.257z M339.152,48.365
	c-2.469,2.812,1.276,2.19,2.803,1.159C340.498,48.867,340.799,48.706,339.152,48.365z M254.849,148.019
	c0-2.559-6.425,8.619-7.282,9.093c0.195,0.662-1.019,3.575,0,3.575c2.986,0,5.833,0,8.719,0c-0.458,0.371-0.751,0.847-0.88,1.427
	c0,1.208,3.077-2.884,2.802-2.418c0.557,0.627,0.877,3.664,2.161,3.664c2.255,0,0.72-3.113,0.72-4.012
	c-2.265,1.638-0.889-1.364-0.801-2.236c-1.687,0-0.802-1.049-0.802-2.673c-1.127,0.773-3.754,0.108-4.72-0.085
	c-0.139-0.712,0.316-0.703,0.403-1.245c-1.142-1.304-1.567,0.005-2.48,0.257C253.188,151.855,254.849,149.683,254.849,148.019z
	 M718.76,50.87c1.985,0,4.108-1.791,6.56-1.791c2.807,0,5.967,1.306,7.033-2.943c-2.306-0.732-9.185-4.789-9.185,0
	c-2.728,0-3.193-4.246-6.487-2.385C713.273,45.676,714.986,50.87,718.76,50.87z M197.176,143.564c1.852,0-2.289-1.519-2.324-1.519
	C195.318,143.01,195.748,143.564,197.176,143.564z M93.269,154.981c2.102,1.471,3.947,3.203,6.637,3.3
	c-0.718-2.635-7.688-8.952-10.719-7.323c2.217,0.658,0.557,3.129,4.881,3.129C93.694,154.283,93.427,154.581,93.269,154.981
	C94.548,155.876,93.429,154.359,93.269,154.981z M81.269,142.851c-0.494-0.947-0.628-1.96-0.399-3.037
	c-0.126,0.586-0.472,0.969-1.04,1.15c-0.279,0,2.495-1.691-1.364-1.691c0.505,0.997,2.408,6.156,3.043,6.156
	C81.079,145.429,81.269,143.036,81.269,142.851z M29.591,127.143c0.558,3.932,4.276,0.976,4.802-1.338
	C32.589,125.808,31.264,126.597,29.591,127.143z M437.201,189.452c-0.775-0.175-5.667,0.004-6.247,0.31
	c0.767,1.032,3.769,3.761,5.439,3.761C436.335,193.523,437.141,190.045,437.201,189.452z M423.677,179.512
	c0.683-1.531,0.394-3.075,0.394-4.553C422.125,175.402,421.639,179.067,423.677,179.512
	C423.916,178.976,422.879,179.337,423.677,179.512z M421.679,181.301c0.152,1.305-0.029,7.314,2.405,4.738
	C427.06,182.89,424.544,180.409,421.679,181.301C421.76,182.004,422.559,181.027,421.679,181.301z M410.478,185.136
	c-0.129-1.25-0.688-1.368-1.679-0.356C408.93,184.912,410.478,186.376,410.478,185.136z M427.438,134.641
	c0-1.422-0.726-2.08-2.083-1.79C425.769,134.004,427.438,136.576,427.438,134.641z M428.395,135.534
	c0.494,2.27,1.521-2.455,3.042-2.955c-1.414-5.365-5.546,0.955-1.921,1.791C429.381,134.98,429.007,135.368,428.395,135.534z
	 M445.592,123.747c-1.147,0.077-2.581,2.32-1.835,3.396C444.523,126.039,445.041,124.985,445.592,123.747
	C444.162,123.843,445.43,124.111,445.592,123.747z M452.796,123.314c2.047,0,1.639-3.327,1.115-4.022
	c-0.407,1.084-1.254,0.369-0.158,1.96C452.689,121.404,450.885,123.314,452.796,123.314z M461.991,198.065
	c-1.633-0.596-3.313-0.774-5.04-0.533C458.031,198.184,460.78,198.796,461.991,198.065
	C460.632,197.62,460.951,198.693,461.991,198.065z M480.87,196.465c-1.617,0.408-3.163,1.002-4.638,1.779
	C476.232,200.647,480.681,197.532,480.87,196.465C479.51,196.724,480.712,197.358,480.87,196.465z M524.543,260.426
	c0.653-0.129,1.131-0.484,1.435-1.066C523.436,259.266,522.958,259.622,524.543,260.426z M512.393,77.365
	c-0.814,0-1.479,4.713,3.752,1.607C517.234,76.186,512.908,77.365,512.393,77.365z M535.341,73.618c0,1.391,3.843,3.163,3.843,1.781
	C539.185,73.94,535.341,71.745,535.341,73.618z M561.581,60.233c1.142-0.083,2.206-0.41,3.192-0.98
	C561.087,55.943,562.823,60.233,561.581,60.233z M726.918,58.445c0.8,0,1.599,0,2.399,0c-0.197-4.868-5.628-3.797-7.603-0.894
	C722.969,57.257,725.505,57.566,726.918,58.445z M742.753,50.592c1.472,0.204,2.673-0.239,3.602-1.33
	c0-2.016-8.861-1.486-10.242-2.673C737.421,49.101,739.756,50.592,742.753,50.592z M723.716,53.718c0-1.277-2.151-1.394-2.151,0
	C721.565,55.351,723.716,55.14,723.716,53.718z M240.766,155.241c-1.781-1.134-3.326-2.728-5.677-2.131
	C235.887,153.772,239.717,157.242,240.766,155.241C239.089,154.173,240.53,155.692,240.766,155.241z M235.807,162.738
	c-0.532,0.307,3.058,5.06,4.161,1.42C238.589,164.467,236.487,164.251,235.807,162.738
	C235.648,162.83,236.208,163.63,235.807,162.738z M245.01,165.684c-0.198-0.811-0.667-1.662-1.201-2.854
	C238.453,164.762,245.01,168.7,245.01,165.684z M3.439,116.44c-0.992,0-1.298,0.559-2.4,0.621c0.617,1.377,2.447,0.9,3.602,0.896
	C4.693,117.07,4.292,116.564,3.439,116.44z"/>
</svg>
